<svg xmlns="http://www.w3.org/2000/svg" xmlns:xlink="http://www.w3.org/1999/xlink" width="167" height="56" viewBox="0 0 167 56">
  <defs>
    <polygon id="gia-logo-a" points="39.326 .521 39.326 37.03 .708 37.03 .708 .521"/>
    <polygon id="gia-logo-c" points="0 55.131 0 27.618 0 .105 55.044 .105 55.044 55.131"/>
  </defs>
  <g fill="none" fill-rule="evenodd">
    <g transform="translate(64.319 8.313)">
      <path fill="#000" d="M99.4130752,6.88286634 C97.8106137,6.88286634 96.3386278,5.62680847 96.3386278,3.80014933 C96.3386278,2.02310769 97.7600773,0.715594637 99.4130752,0.715594637 C101.144175,0.715594637 102.504062,2.05894255 102.504062,3.80841891 C102.504062,5.45314721 101.205737,6.88286634 99.4130752,6.88286634 Z M99.4130752,0.994003952 C97.890553,0.994003952 96.6161183,2.22433423 96.6161183,3.80014933 C96.6161183,5.38515286 97.8804457,6.60629471 99.4222637,6.60629471 C101.041264,6.60629471 102.22749,5.30705124 102.22749,3.80841891 C102.22749,2.25006182 101.032076,0.994003952 99.4130752,0.994003952 Z M99.3790781,1.83474495 C99.7778558,1.83474495 100.055346,1.8420957 100.289651,1.9284669 C100.712319,2.07640056 100.910789,2.46690868 100.910789,2.82985152 C100.910789,3.09815356 100.806041,3.57411404 100.11599,3.74685646 C100.48904,3.9030597 100.598382,4.12909499 100.670052,4.56186987 C100.747235,5.0993928 100.791339,5.37504559 100.963163,5.72420579 L100.175715,5.72420579 C100.062697,5.49633282 100.045239,5.35023684 99.9671373,4.87335752 C99.8384994,4.05099337 99.7861253,3.97381059 98.8075579,3.97381059 L98.8075579,5.72420579 L98.1138318,5.72420579 L98.1138318,1.83474495 L99.3790781,1.83474495 Z M98.8158275,3.4179108 L99.3864288,3.4179108 C99.6740265,3.4179108 100.219819,3.4179108 100.219819,2.88222555 C100.219819,2.7260223 100.149068,2.51744502 99.9423286,2.42188539 C99.8026645,2.37134905 99.6822961,2.37134905 99.2577908,2.37134905 L98.8158275,2.37134905 L98.8158275,3.4179108 Z"/>
      <g transform="translate(63.4)">
        <mask id="gia-logo-b" fill="#fff">
          <use xlink:href="#gia-logo-a"/>
        </mask>
        <path fill="#000" d="M28.3813029,36.3136713 C28.1883459,35.777986 27.9696614,35.0594511 27.9696614,35.0594511 L24.2161893,25.111142 C24.1224673,24.8915386 23.9653452,24.7821963 23.7466607,24.7821963 L13.2828809,24.7821963 C13.095437,24.7821963 12.9548541,24.9071589 12.8602133,25.1561653 L10.3269641,31.8673918 C9.85743557,33.0260524 9.62221186,33.9788922 9.62221186,34.7314243 C9.62221186,35.1981963 9.76371362,35.5583826 10.0448795,35.8092267 C10.3269641,36.0600707 10.8102754,36.1841145 11.5003262,36.1841145 L12.2032408,36.1841145 C12.6727694,36.1841145 12.9079931,36.3109147 12.9079931,36.5608399 C12.9079931,36.8732464 12.6406099,37.0303685 12.1095188,37.0303685 C11.5150277,37.0303685 10.6715301,37.0129105 9.57626972,36.9825887 C8.35512788,36.9201074 7.542871,36.8879479 7.13490487,36.8879479 C7.04210176,36.8879479 6.69753578,36.9035682 6.1030446,36.9357277 C5.63443486,36.9357277 4.9691928,36.9513481 4.10823726,36.9825887 C3.24911941,37.0129105 2.41113493,37.0303685 1.59795921,37.0303685 C1.00346803,37.0303685 0.707600706,36.8732464 0.707600706,36.5608399 C0.707600706,36.3109147 0.894125759,36.1841145 1.26809471,36.1841145 C1.73762329,36.1841145 2.22460988,36.1547115 2.72446027,36.0913114 C3.72416104,35.9663488 4.5079338,35.5684899 5.07118433,34.8940594 C5.63443486,34.2223855 6.18206507,33.2125774 6.71223726,31.8673918 L18.4917997,2.39827114 C18.7738844,1.67881736 19.0081893,1.18631771 19.1956332,0.919853352 C19.3830771,0.653388991 19.5870601,0.521075653 19.8048258,0.521075653 C20.1512295,0.521075653 20.5408188,1.02184488 20.9791067,2.02338335 C21.1977912,2.49199308 21.6673198,3.63411447 22.3858548,5.44882865 L25.2011886,12.5340241 L29.6833029,23.6795852 L30.9274158,26.7760848 L32.6162486,30.8823925 C33.3991025,32.7586692 34.1185562,34.0422923 34.773691,34.7314243 C35.4325012,35.4177997 36.0894737,35.8404673 36.7455273,35.9975894 C37.3712591,36.1216332 38.0282316,36.1841145 38.7155259,36.1841145 C39.123492,36.1841145 39.3265562,36.3109147 39.3265562,36.5608399 C39.3265562,36.7482838 39.1859733,36.8732464 38.9048075,36.9357277 C38.6227228,36.998209 38.0447708,37.0303685 37.1681949,37.0303685 L32.689756,36.928377 C31.3601907,36.928377 30.0251124,37.0285308 29.0125478,37.0285308 C28.7267877,37.0285308 28.573341,36.8493565 28.3813029,36.3136713 M14.2210192,22.4363911 L22.8553833,22.4363911 C23.0115866,22.4363911 23.0896882,22.3417503 23.0896882,22.1533876 L18.8666875,10.5631067 L18.8666875,10.5171646 C18.8051251,10.2663205 18.7270234,10.1395203 18.6323826,10.1395203 C18.5065012,10.1395203 18.4136981,10.2828597 18.350298,10.5631067 L14.0335753,22.1065266 C14.0335753,22.32613 14.0960566,22.4363911 14.2210192,22.4363911" mask="url(#gia-logo-b)"/>
      </g>
      <path fill="#000" d="M34.315648 19.1786346C34.3119726 19.2934899 34.2926769 22.4745231 34.2926769 22.4745231 34.2614363 23.4117426 34.2458159 25.9459105 34.2458159 28.7520559L34.2458159 33.90125C34.2458159 34.5251441 34.2145753 34.923003 34.152094 35.0948265 34.0896127 35.2657313 33.918708 35.4302041 33.6375421 35.5864073 32.2326318 36.3031046 30.5171526 36.8341956 28.4892669 37.1778428 26.4604624 37.5196522 24.4169564 37.6923946 22.3578301 37.6923946 19.3936438 37.6923946 16.6159825 37.3331272 14.0257651 36.6164299 11.4373855 35.8997327 9.14395427 34.7897708 7.14730924 33.2929761 5.15066422 31.7952627 3.58219986 29.8758004 2.442835 27.5364271 1.30347015 25.1961349.734706563 22.4653347.734706563 19.3458639.734706563 15.8515054 1.50745321 12.7779769 3.05202766 10.1252782 4.59660212 7.47349838 6.53903543 5.44469386 8.87840875 4.04162117 10.9081321 2.82507354 12.9185598 2.01281665 14.9170425 1.60760706 16.9136875 1.20239746 19.0977764.999333239 21.4683904.999333239 22.2494066.999333239 23.0442055 1.02322315 23.8555435 1.07008412 24.6659627 1.11510741 25.5103791 1.18677713 26.3832796 1.28049908 27.2552613 1.37330219 27.9737962 1.46059224 28.5361279 1.53777502 29.0984596 1.6149578 29.5027503 1.68478984 29.7526755 1.74818998 30.3765697 1.87315258 31.0317044 1.98341369 31.7180799 2.07529795 32.4053742 2.1690199 32.9814885 2.2315012 33.4500982 2.26182301 33.8874673 2.2939825 34.1043142 2.48050755 34.1043142 2.82507354 34.1043142 2.91879548 34.0896127 3.08970021 34.0583721 3.33962541 33.9958908 4.02600085 33.9334095 4.8915506 33.8709282 5.93719351 33.8084469 6.98283641 33.7772062 8.50352096 33.7772062 10.500166 33.7772062 11.1553008 33.6072203 11.4833276 33.2617355 11.4833276 33.0127291 11.4833276 32.8574447 11.2793445 32.7949634 10.8750538 32.7003227 10.1252782 32.5450382 9.43155201 32.3272725 8.79203754 32.1076692 8.15160423 31.7337002 7.5516 31.2026092 6.98926831 30.3618682 6.08604601 29.0111695 5.24989922 27.1541886 4.486341 25.2990453 3.7209451 23.1682493 3.33962541 20.7673135 3.33962541 19.0499966 3.33962541 17.4438597 3.51971856 15.9461462 3.87806718 14.4493516 4.23549697 12.9663396 5.02478278 11.4989479 6.23949273 10.1280347 7.39447791 9.06585265 8.90137982 8.31699591 10.7574419 7.56813917 12.613504 7.19325138 14.9308251 7.19325138 17.7075675 7.19325138 20.2031441 7.57640875 22.5287348 8.33996697 24.6815831 9.10536288 26.8344313 10.2042987 28.7051949 11.6404497 30.298468 13.0756819 31.8889846 14.7994306 33.1211526 16.8107771 33.9949719 18.8230425 34.8687912 21.0466416 35.3052415 23.4797369 35.3052415 24.3544751 35.3052415 25.1097637 35.2749197 25.750197 35.2124384 26.3906303 35.1490382 26.9603128 35.0093742 27.4592443 34.7897708 28.0518978 34.5095238 28.348684 33.9334095 28.348684 33.0586713L28.348684 28.6601716C28.348684 25.9146699 28.3330637 23.4117426 28.301823 22.4745231 28.2715012 21.663185 28.1143791 21.0558301 27.835051 20.6497016 27.5529663 20.2435732 27.0374956 19.9624073 26.2886388 19.8080418 25.9155887 19.713401 25.3054772 19.6656212 24.4628985 19.6656212 23.9952076 19.6656212 23.7618216 19.5415774 23.7618216 19.2925711 23.7618216 18.9820023 24.0898484 18.8248802 24.7449832 18.8248802 25.5875619 18.8248802 27.0062549 18.8561208 29.0028999 18.9186021 30.3765697 18.9489239 31.2191483 18.9636254 31.5297171 18.9636254 31.8816339 18.9636254 32.7131865 18.9378978 33.983027 18.8818484 34.2568421 18.8818484 34.3174857 19.0637793 34.315648 19.1786346M48.9780792 23.4642085L48.9780792 15.2267843 48.9780792 8.01846394C48.9780792 6.9893602 48.9477574 6.08521905 48.8861949 5.30328398 48.7915541 3.77616754 48.2604631 2.90142936 47.2929218 2.68366366 46.8261498 2.55870106 46.2628992 2.4971386 45.6086833 2.4971386 45.1097517 2.4971386 44.8598265 2.34093536 44.8598265 2.02944771 44.8598265 1.77860367 45.2337955 1.65455992 45.9835711 1.65455992 46.5762246 1.65455992 47.7155894 1.68488172 49.3989091 1.74828186 50.7100975 1.77860367 51.5986183 1.79330515 52.0681469 1.79330515 52.441197 1.79330515 53.2065929 1.77860367 54.3606593 1.74828186 55.9833354 1.68488172 57.1217814 1.65455992 57.777835 1.65455992 58.4329698 1.65455992 58.7591589 1.77860367 58.7591589 2.02944771 58.7591589 2.34093536 58.5110714 2.4971386 58.011221 2.4971386 57.6363332 2.4971386 57.1695612 2.54399958 56.6072295 2.63772152 55.9833354 2.76176528 55.5542359 3.0273108 55.3190121 3.43343924 55.086545 3.83772999 54.9376924 4.46254298 54.8752112 5.30328398 54.8127299 6.08521905 54.7805704 6.9893602 54.7805704 8.01846394L54.7805704 15.2267843 54.7805704 23.4642085C54.7805704 26.3659135 54.7888399 28.5720546 54.806298 30.088145 54.8200806 31.5996411 54.8752112 32.8079191 54.9698519 33.7148168 55.0617362 34.431514 55.2344786 34.9708747 55.4844038 35.3292233 55.7334102 35.6875719 56.1845619 35.9136072 56.8415344 36.0064103 57.1851815 36.0385698 57.5747708 36.0762423 58.011221 36.1240222 58.4485901 36.1708831 58.8528809 36.1956919 59.2268498 36.1956919 59.7267002 36.1956919 59.9775442 36.3188168 59.9775442 36.568742 59.9775442 36.8820673 59.6798392 37.0373517 59.0881046 37.0373517 57.777835 37.0373517 56.0605181 37.0061111 53.9398294 36.9417921 52.9410474 36.9123891 52.2234313 36.8967688 51.7860622 36.8967688 51.5379747 36.8967688 50.8029006 36.9123891 49.586353 36.9417921 47.7771519 37.0061111 46.5449839 37.0373517 45.8889303 37.0373517 45.265955 37.0373517 44.9535485 36.8820673 44.9535485 36.568742 44.9535485 36.3188168 45.2025548 36.1956919 45.7024052 36.1956919 46.2628992 36.1956919 46.8261498 36.1313729 47.3875626 36.0064103 48.1355005 35.8511259 48.5894088 35.0710285 48.7446932 33.667037 48.8384151 32.7628958 48.8999776 31.5518613 48.9321371 30.0403651 48.9624589 28.5270313 48.9780792 26.3346728 48.9780792 23.4642085"/>
    </g>
    <polygon fill="#A8996E" points="37.244 14.097 38.578 13.384 38.18 13.106 37.309 13.623 37.486 12.622 37.088 12.345 36.881 13.843 36.344 14.612 36.707 14.866"/>
    <path fill="#A8996E" d="M30.0529533,11.1857975 L30.3690351,11.240928 L30.6529575,12.21582 L31.163834,12.3040289 L30.8284565,11.2455222 C30.8863435,11.235415 30.9433118,11.217957 30.9984423,11.1922294 C31.0535729,11.1655829 31.1050281,11.1315857 31.1518891,11.0874813 C31.19875,11.0452145 31.2382603,10.9937594 31.2713386,10.9340346 C31.3044169,10.8743098 31.327388,10.8053966 31.3420895,10.7254573 C31.3577098,10.6298977 31.3577098,10.5380134 31.3384141,10.4488857 C31.3200373,10.3606768 31.2851212,10.2788998 31.2327472,10.2053924 C31.1803732,10.1328038 31.11146,10.0694037 31.0278453,10.0170296 C30.9433118,9.96465561 30.8440768,9.92790191 30.7301403,9.90860621 L29.8471325,9.75607833 L29.4584621,12.0090805 L29.8976689,12.0844255 L30.0529533,11.1857975 Z M30.2192638,10.2237692 L30.6336618,10.2963578 C30.7301403,10.312897 30.8036477,10.353326 30.8523464,10.417645 C30.901045,10.4828829 30.9175842,10.5600656 30.9019639,10.6482745 C30.8863435,10.7374023 30.8459145,10.8044778 30.7770013,10.8495011 C30.7099258,10.8936055 30.6272299,10.908307 30.5307514,10.890849 L30.1154346,10.8191793 L30.2192638,10.2237692 Z"/>
    <polygon fill="#A8996E" points="40.271 15.408 39.172 15.347 39.112 16.447 40.21 16.507"/>
    <polygon fill="#A8996E" points="11.79 26.357 11.394 26.343 11.359 27.402 10.805 27.384 10.834 26.483 10.436 26.47 10.407 27.371 9.872 27.354 9.905 26.296 9.508 26.283 9.459 27.787 11.743 27.86"/>
    <polygon fill="#A8996E" points="29.36 36.034 29.157 36.576 32.573 36.576 32.458 36.034"/>
    <polygon fill="#A8996E" points="34.483 13.528 35.294 11.824 35.833 12.08 36.004 11.721 34.522 11.016 34.351 11.375 34.891 11.632 34.08 13.337"/>
    <polygon fill="#A8996E" points="36.848 40.396 37.099 40.704 37.92 40.036 38.269 40.465 37.572 41.036 37.823 41.345 38.522 40.775 38.86 41.189 38.04 41.859 38.29 42.167 39.456 41.216 38.014 39.446"/>
    <polygon fill="#A8996E" points="41.658 20.647 41.859 21.117 42.764 21.211 42.203 21.931 42.403 22.4 43.204 21.287 44.489 21.463 44.292 20.999 43.456 20.918 43.979 20.263 43.782 19.795 43.015 20.844"/>
    <g fill="#A8996E" transform="translate(15.62 19.34)">
      <path d="M22.7417225.353111221L22.7224268.253876217 1.00374368.253876217.986285674.354948906C.97801609.396296824.262237685 4.61194679 1.2389674 9.41198066 2.14310854 13.8518282 4.71770558 19.7168007 11.8561939 22.4420879L11.8993795 22.4595459 11.9444028 22.4411691C19.1821262 19.6138903 21.7319145 13.7544309 22.5974642 9.33663557 23.532846 4.5604916 22.7499921.394459139 22.7417225.353111221zM14.401388 8.81197643C14.4427359 8.83954171 14.4960288 8.83954171 14.5042984 8.88732152 14.5116491 8.93326366 14.5768869 8.99850148 14.6035334 9.05822625 14.6209914 9.0958988 14.6559074 9.11151912 14.6421248 9.13816556 14.6338552 9.15562357 14.5612666 9.22637445 14.5309448 9.23464404 14.5144056 9.23831941 14.4822462 9.20248454 14.4179272 9.21902371 14.3618778 9.23464404 14.2304833 9.22178024 14.2010803 9.25669626 14.1799469 9.28058617 14.0944946 9.30539492 14.0430394 9.31733987 14.004448 9.15011052 13.9649378 8.98012463 13.9217522 8.80462569 14.0724423 8.78532999 14.220376 8.76695314 14.3683097 8.75041397 14.3765793 8.77338504 14.3876054 8.802788 14.401388 8.81197643zM6.56733578 9.00033917C6.55998504 9.16756853 6.25492929 9.24567015 6.39459337 9.36144432 6.51863712 9.46527354 6.42675286 9.56083317 6.32016711 9.67660734L5.70729908 9.67660734C5.69811066 9.50662145 5.69167876 9.33663557 5.68984107 9.17032505 5.96181849 9.04995667 6.24849739 8.93142597 6.5462024 8.81657064 6.55447198 8.8717012 6.56825462 8.97185505 6.56733578 9.00033917zM18.9129053 9.11243797C18.9230126 9.17308158 18.9882504 9.23831941 19.0001953 9.31733987 19.0213287 9.45608511 18.9836562 9.60861299 18.9652793 9.64812322 18.9606851 9.65731164 18.9579286 9.66741891 18.9560909 9.67660734L17.9150422 9.67660734C17.8939088 9.56267085 17.8700189 9.44873437 17.846129 9.33571673 17.8148884 9.19329612 17.7808912 9.04995667 17.7441375 8.90569838 17.8185637 8.92039986 17.9462829 8.95439704 17.9674162 9.0030957 17.9848742 9.04168709 17.9416886 9.09773649 17.9720104 9.11611334 18.0060076 9.13632788 18.0400048 9.15654241 18.0776773 9.17675695 18.1135122 9.19789033 18.0730831 9.24842668 18.1171876 9.26772237 18.1778312 9.29436881 18.1750747 9.26680353 18.2329618 9.3072326 18.3560867 9.3954415 18.3790577 9.18227001 18.4084607 9.16573084 18.4902377 9.11886987 18.5499625 9.21534834 18.6436844 9.2144295 18.7015715 9.21351066 18.786105 9.07568426 18.8614501 9.01504065 18.8871777 8.99390727 18.9110676 8.98196231 18.9331198 8.98655653 18.9514967 8.99115074 18.9018792 9.05546972 18.9129053 9.11243797zM8.5079314 9.25210205C8.43534284 9.21075413 8.2901657 9.25302089 8.21022639 9.23648172 8.20471334 9.23556288 8.05126662 9.1583801 7.99246069 9.12346408 7.97684037 9.11335681 7.99154185 9.09957417 8.0034868 9.09406112 8.02553903 9.08395385 8.05126662 9.06465815 8.0595362 9.06282047 8.07331884 9.0591451 8.03288977 8.98655653 8.00899986 8.97001736 7.98602879 8.95439704 7.97040847 8.92223754 7.95203162 8.89375342 7.92906055 8.85975625 7.89965759 8.81748948 7.8978199 8.8156518 7.85095893 8.72560522 7.90149527 8.66679929 7.77010078 8.65669203 7.74069781 8.65485434 7.60195258 8.88272731 7.49996104 8.88824037 7.48525956 8.75133282 7.47147692 8.61626295 7.46136965 8.48394961 8.24238589 8.22483599 8.4840415 8.15408511 9.15571546 7.96480353 9.22922287 8.43892632 9.31743176 8.93050713 9.41574792 9.43035752 9.1630662 9.50018956 8.91405984 9.57185928 8.66597234 9.64628553 8.68710572 9.60309993 8.71191447 9.53326789 8.71099562 9.51580988 8.71007678 9.45700395 8.533659 9.26864121 8.5079314 9.25210205zM4.82704785 8.31028836C4.82704785 8.324071 4.77283613 8.31947678 4.75354044 8.31947678 4.73424474 8.31947678 4.71954326 8.32958405 4.71494905 8.34428553 4.71035483 8.35898701 4.70943599 8.40309146 4.7140302 8.43708864 4.71954326 8.47108582 4.59274298 8.65852971 4.57344728 8.67415004 4.5587458 8.68517615 4.48523839 8.68977036 4.42643246 8.67782541 4.45583543 8.522541 4.48891376 8.37001313 4.52658631 8.22024178 4.59549951 8.1798127 4.66716923 8.13938363 4.7397578 8.09895455 4.87298998 8.16327354 4.82704785 8.29926224 4.82704785 8.31028836zM4.62214594 7.87659464C4.69289682 7.64688398 4.77375498 7.42452406 4.86380155 7.20951489 4.91893211 7.27199619 5.01724827 7.33447749 4.99611489 7.43003712 4.97865688 7.50813874 4.91250021 7.54856782 4.89136683 7.62299407 4.87574651 7.67996231 4.86104502 7.71028412 4.83072322 7.76357699 4.75997234 7.80124954 4.6901403 7.83892209 4.62214594 7.87659464zM5.67238306 6.61318603C5.60622639 6.660047 5.64849315 6.68669344 5.54006972 6.73998631 5.52628709 6.74641821 5.37927227 6.93569979 5.40867523 6.98899266 5.43807819 7.04320438 5.3370055 7.26832082 5.39764912 7.302318 5.45737389 7.33631517 5.35997657 7.41625448 5.35997657 7.43095596 5.35905773 7.44565745 5.21939365 7.42911828 5.18631531 7.37582541 5.10637601 7.24902512 5.21755596 7.121306 5.20193564 7.08179577 5.1752892 7.01472025 5.0631904 6.94121284 4.99060183 6.92926789 5.01632943 6.87505618 5.04297586 6.8217633 5.07054114 6.76847043 5.30576486 6.62880635 5.57039153 6.49006112 5.85982696 6.35223472 5.83042399 6.43493056 5.80193987 6.51946408 5.77529344 6.60491644 5.74772816 6.59664686 5.71740635 6.58286422 5.67238306 6.61318603zM6.17774651 6.20705759C6.48739647 6.07015004 6.82920593 5.93416133 7.19214876 5.8000103 7.22798363 5.78806535 7.26289965 5.77520155 7.29781567 5.76233776 7.23717205 6.07198772 7.19398645 6.40736528 7.17009654 6.76387622 7.12047904 6.78133423 7.07178038 6.79971108 7.02124404 6.81716909 6.97438306 6.77582117 6.96611348 6.68944996 6.9449801 6.66372237 6.90730755 6.61778024 6.8393132 6.64442668 6.81174792 6.63248172 6.77866958 6.6168614 6.77958843 6.56264968 6.73915935 6.56264968 6.71802597 6.56264968 6.5829561 6.52222061 6.51955596 6.48271037 6.47545152 6.45422625 6.26963077 6.33937092 6.22552632 6.34212745 6.18417841 6.34488398 6.14834354 6.35866662 6.11526521 6.37796231 6.13364206 6.32558829 6.15477544 6.26953888 6.17774651 6.20705759zM6.16580155 8.68333846C6.13180438 8.69620226 6.0978072 8.7099849 6.06472886 8.72376754 6.06564771 8.59237304 6.09321299 8.63923402 6.11250868 8.55010628 6.11802174 8.52529753 5.99765335 8.49038151 5.9664127 8.4664916 5.81847904 8.35347396 5.88096034 8.18256923 5.91863289 8.13846478 5.95630543 8.09436034 6.22185095 7.8563801 6.1409928 7.82146408 5.9792765 7.74979435 6.2723873 7.43463133 6.37254114 7.47414157 6.47177615 7.51457064 6.58755032 7.27842809 6.70240565 7.31518179 6.81817982 7.3519355 6.7768319 7.36020508 6.80531602 7.44749513 6.82185519 7.500788 6.78602032 7.56786351 6.77866958 7.61564333 6.76856231 7.66985505 6.67667805 7.6882319 6.69964912 7.77735963 6.72262018 7.86556853 6.46350656 8.17889386 6.43594128 8.19451418 6.38264841 8.22483599 6.37713536 8.423306 6.49934143 8.36633776 6.6022518 8.31947678 6.6518693 8.45638433 6.671165 8.4857873 6.49934143 8.55102512 6.33027438 8.61626295 6.16580155 8.68333846zM8.08434495 5.68331729C8.09261454 5.72742174 8.12385519 5.77795808 8.1284494 5.81103641 8.13212477 5.84779012 8.17898574 5.88086845 8.19001186 5.87627424 8.20746987 5.8689235 8.22309019 5.8624916 8.23687283 5.85697855 8.2965976 5.8321698 8.31038024 5.8817873 8.37286154 5.87627424 8.38572534 5.87443656 8.41880367 5.88913804 8.45096316 5.90567721 8.49047339 5.92589174 8.4776096 5.98929188 8.45555737 6.01685716 8.43258631 6.04442244 8.41237177 6.07106888 8.39215723 6.07474425 8.25065547 6.10047184 8.10915371 6.01777601 8.15601468 6.28332152 8.16520311 6.33937092 8.19001186 6.39174495 8.21941482 6.4229856 7.97132731 6.49741186 7.76550656 6.56540621 7.44391164 6.67107311 7.47055808 6.30904912 7.51650021 5.96999619 7.58265688 5.66402159 7.82063712 5.58500113 7.99521722 5.52803289 8.15050162 5.47933423 8.10915371 5.54457205 8.07331884 5.63002442 8.08434495 5.68331729zM18.5251537 8.27077812C18.3882462 8.242294 18.3129011 8.31028836 18.2384748 8.37644502 18.0758397 8.36174354 17.9076915 8.34887975 17.7331114 8.34061016 17.7340302 8.33601595 17.734949 8.33234058 17.7377056 8.32774637 17.8001869 8.16511122 17.7358679 7.97858617 17.8075376 7.80584375 17.8249956 7.76265815 17.910448 7.6818 17.9729293 7.69374495 17.9995757 7.69833917 18.0133584 7.76173931 18.0611382 7.78654806 18.0785962 7.79573649 18.0951354 7.83524672 18.1052426 7.87475695 18.1098368 7.89221496 18.1594543 7.86464968 18.1934515 7.87935116 18.2439879 7.90140339 18.3165764 7.94734552 18.3524113 7.91978024 18.418568 7.87108158 18.4939131 7.80951912 18.540774 7.79114227 18.5444494 7.78930459 18.5490436 7.78838574 18.552719 7.7874669 18.617038 7.93907594 18.6767627 8.09252265 18.733731 8.2487259 18.6675743 8.25332011 18.5784466 8.28180423 18.5251537 8.27077812zM16.7159526 9.13265251C16.7177903 9.11703218 16.7628135 9.14735399 16.8142687 9.13173366 16.836321 9.12438292 16.8427529 9.06282047 16.8436717 9.06282047 16.7986484 9.03249866 16.6626597 9.00860875 16.5588305 8.96542315 16.5340217 8.95439704 16.5468855 8.9148868 16.5202391 8.90661722 16.409978 8.86894467 16.3024734 8.85975625 16.2666385 8.81840833 16.2069138 8.74765745 16.2225341 8.64382823 16.3116618 8.64015286 16.3833315 8.64474707 16.5579116 8.70171531 16.6819554 8.74122555 16.6746047 8.73938786 16.8785877 8.73479365 16.8785877 8.74122555 16.9079907 8.77430388 16.8978834 8.93969555 16.9484198 8.95072167 17.0366287 8.97185505 17.0467359 9.05179435 17.0981911 9.11703218 17.122081 9.14827283 17.174455 9.13632788 17.2148841 9.17583811 17.2792031 9.23740056 17.3334148 9.35225589 17.3683308 9.40003571 17.4400006 9.49743303 17.5429109 9.46619238 17.5980415 9.44230247 17.6145807 9.51948525 17.6311198 9.59758687 17.6458213 9.67660734L16.7049265 9.67660734C16.6929815 9.64169132 16.67828 9.59207382 16.6874685 9.56726507 16.6939004 9.55164474 16.7214656 9.54613169 16.7278975 9.52591715 16.7453555 9.47354312 16.7903788 9.42300677 16.7995673 9.35593126 16.8050803 9.30447608 16.7095207 9.17951348 16.7159526 9.13265251zM15.0335517 7.0781204C15.1640274 7.25729471 15.1520824 7.25361934 14.9811777 7.3455036 14.9159399 7.37950078 14.7413598 7.48149231 14.7450351 7.5761331 14.7477917 7.65423472 14.8341629 7.70017685 14.7229829 7.73693056 14.6779596 7.75163204 14.5144056 7.8995657 14.4739766 7.80584375 14.4445736 7.73968709 14.5070549 7.64780282 14.4684635 7.58440268 14.4519243 7.55499972 14.3921996 7.5504055 14.3572836 7.56786351 14.3435009 7.57521426 14.3306371 7.55775625 14.3232864 7.53754171 14.2626428 7.38317615 13.9189956 7.26188892 13.8215983 7.17459887 13.7857634 7.14152054 13.7912765 7.10109146 13.8023026 7.05974354 14.2948023 7.00369414 14.5382956 6.98439845 15.0519286 6.94488821 15.0546851 6.9531578 15.0565228 6.96050854 15.0601982 6.96785928 15.0684677 7.01288257 15.008743 7.04228553 15.0335517 7.0781204zM11.1716562 7.48149231C11.2809984 7.93631941 11.3940161 8.423306 11.5088714 8.93142597 10.8969222 9.05638857 10.2858919 9.19972802 9.68772534 9.35776895 9.5857338 8.83770402 9.49752491 8.34520438 9.42677403 7.89037728 10.0056449 7.73693056 10.5918665 7.60002301 11.1716562 7.48149231zM10.8711946 4.237059C10.8794642 4.22695173 10.8914092 4.17274001 10.8960034 4.14333705 10.9033541 4.09831376 10.8234148 4.03123825 10.8077945 4.00091644 10.8004438 3.98529612 10.7673654 3.96600042 10.728774 3.94670473 11.0016703 3.89708723 11.27181 3.85390162 11.534599 3.81806676 11.6715066 3.96875695 11.8102518 4.15436316 11.948997 4.37029118 11.5832977 4.42266521 11.2102476 4.48514651 10.8362786 4.55681623 10.8114699 4.47871461 10.7829857 4.35926507 10.8711946 4.237059zM15.3459582 5.24870473C15.37628 5.16876542 15.4148714 5.12374213 15.4001699 4.99050995 15.3983323 4.98224037 15.4268164 4.95008088 15.4507063 4.92159675 15.5462659 5.02634481 15.639069 5.13568709 15.7300344 5.24870473L15.7300344 5.24962357C15.6289618 5.24870473 15.5416717 5.24778589 15.4626512 5.24778589 15.4222222 5.24778589 15.3836308 5.24778589 15.3459582 5.24870473zM14.3885242 5.78071461C14.3774981 5.82206253 14.2819385 5.87903077 14.2543732 5.96080776 14.1900542 6.15008934 14.4197649 6.35039704 14.4032257 6.36326083 14.3995503 6.36601736 14.3967938 6.38071884 14.401388 6.38806958 14.4197649 6.4229856 14.453762 6.49465533 14.4960288 6.53416556 14.5337013 6.57000042 14.5778058 6.58378306 14.6072088 6.58470191 14.6154783 6.58470191 14.629261 6.57918885 14.6384494 6.57367579 14.6430436 6.57091927 14.6605016 6.57000042 14.6742843 6.57183811 14.6908234 6.57459464 14.7174699 6.57367579 14.7551424 6.54978589 14.7863831 6.52957135 14.8185426 6.50200607 14.8488644 6.47260311 14.8819427 6.54335399 14.9131833 6.61502371 14.944424 6.68853112 14.3627966 6.73171673 14.1009265 6.75744432 13.6562066 6.81073719 13.6415052 6.7721458 13.6029138 6.72528483 13.5689166 6.68944996 13.5514586 6.67107311 13.4035249 6.75560663 13.3456378 6.81165603 13.2087303 6.40920296 13.064472 6.02972096 12.9165383 5.67964192 13.4136322 5.61624178 13.9006188 5.56846196 14.3673908 5.539059 14.3830112 5.56570543 14.3986315 5.59235187 14.4142518 5.61899831 14.3480951 5.70628836 14.4078199 5.70628836 14.3885242 5.78071461zM9.37531884 7.47873578C9.47914806 7.46035893 9.49017417 7.52743444 9.58849033 7.35285434 9.63075709 7.27842809 9.5921657 7.21778447 9.60686718 7.11395526 9.61697445 7.03769132 9.74285589 6.71885293 9.66291658 6.65637163 9.57103232 6.58470191 9.84852279 6.42390445 9.91835483 6.43309287 9.97440423 6.44044361 9.97899845 6.39817685 9.99278109 6.36509852 9.99553761 6.35958546 10.0120768 6.2612693 10.0267783 6.20338222 10.2914049 6.14181976 10.5532751 6.08393267 10.8133076 6.0306398 10.9061107 6.39082611 11.0062645 6.7914415 11.1110126 7.22421637 10.3033499 7.3951211 10.0763958 7.4511705 9.38634495 7.62758829 9.37807537 7.57888963 9.37164347 7.53019097 9.36521157 7.48149231 9.3679681 7.48057347 9.37164347 7.47965462 9.37531884 7.47873578zM10.9639977 5.0088868C10.9538905 4.99234764 10.9934007 4.91975907 10.9676731 4.90230106 10.9483774 4.88759958 10.904273 4.84257629 10.8767077 4.80030953 11.283755 4.72312675 11.6908023 4.65513239 12.08958 4.59908299 12.241189 4.85911546 12.3891227 5.15222625 12.5342998 5.47198349 12.0261798 5.54365321 11.517141 5.63002442 11.0163718 5.72834058 10.9731862 5.56570543 10.9300006 5.40674566 10.8858961 5.25146126 10.9538905 5.17427848 11.0136152 5.0906638 10.9639977 5.0088868zM14.2185383 5.29464686C13.6102645 5.34058899 13.3943365 5.36539774 12.8108714 5.43614862 12.6647754 5.11363486 12.5168418 4.82144291 12.3689081 4.56324813 12.7980076 4.50995526 13.2068926 4.47044502 13.5882123 4.44655512 13.8050591 4.69096725 14.0163929 4.97580847 14.2185383 5.29464686zM13.6966357 4.19387339C13.5110295 3.99724107 13.3199102 3.82266097 13.1269533 3.67472731 13.3704466 3.66553888 13.6056703 3.66462004 13.8271114 3.67105194 14.103683 3.80612181 14.3738227 3.97335116 14.6338552 4.16906464 14.3352313 4.16722696 14.0209872 4.17549654 13.6966357 4.19387339zM13.3732031 4.21500677C12.9983153 4.2434909 12.6151579 4.28300113 12.229244 4.33261863 12.0978495 4.12312251 11.9646174 3.93843514 11.832304 3.78039421 12.2163802 3.73445208 12.3633951 3.72250713 12.7447147 3.69402301 12.9569674 3.83460593 13.1673824 4.00918603 13.3732031 4.21500677zM10.7489886 5.78163345C10.5670577 5.819306 10.3851269 5.85881623 10.2050337 5.90016415 10.2059526 5.89648878 10.2077903 5.89373225 10.2087091 5.89097572 10.3401036 5.54732858 10.5468432 5.5261952 10.6616985 5.45544432 10.6901826 5.56019238 10.7186668 5.66861581 10.7489886 5.78163345zM11.5658397 5.8882192C11.5153033 5.94334975 11.4381205 6.01593832 11.3976915 6.03982823 11.3774769 6.05177318 11.2846738 6.23462287 11.3232652 6.29067227 11.3618566 6.34488398 11.3903407 6.41563486 11.4482278 6.4487132 11.4215814 6.48271037 11.6319963 6.33385787 11.6200514 6.39725801 11.5943238 6.52405829 11.7937126 6.34855935 11.8047387 6.34212745 11.9223506 6.23646055 12.0519074 6.07933846 12.1667627 5.98010346 12.206273 5.94702512 12.1116322 5.86616697 12.0123972 5.81195526 12.1952469 5.78347114 12.3817719 5.75498701 12.6408855 5.71731447 12.7924946 6.07658193 12.9404282 6.46709005 13.0800923 6.88332576 12.5251114 6.96050854 11.9554289 7.05606817 11.3839088 7.16816697 11.2819173 6.75285011 11.1817634 6.35315356 11.0825284 5.97826577 11.2736477 5.94151207 11.4289321 5.91302795 11.5658397 5.8882192zM15.6353936 6.36326083C15.6941996 6.29434764 15.586695 6.21900254 15.5701558 6.17581694 15.5554543 6.13538786 15.7291156 5.93508017 15.6592836 5.87259887 15.6372313 5.85238433 15.4240598 5.74763627 15.423141 5.73293479 15.423141 5.73109711 15.4029265 5.56478659 15.3836308 5.50138645 15.5435094 5.49954876 15.6703097 5.50138645 15.8329448 5.50414298 15.8311071 5.53446478 15.8255941 5.57213733 15.8164056 5.61532294 15.7897592 5.73293479 16.0102814 5.7439609 16.0213076 5.74212322 16.0341713 5.73844785 16.0598989 5.73569132 16.0874642 5.73385363 16.1453513 5.819306 16.2023195 5.90659605 16.2583689 5.99664263 16.1719977 6.0242079 16.1085976 6.27505194 16.1095164 6.34212745 16.1141107 6.63064404 16.2069138 6.44320014 16.217021 6.53967862 16.2197776 6.57091927 16.19405 6.60767297 16.1701601 6.63983246 15.9349363 6.64167015 15.6941996 6.64810205 15.4497874 6.65912816 15.4745962 6.50568144 15.6877677 6.58286422 15.703388 6.44320014 15.7052257 6.42666097 15.5912892 6.41655371 15.6353936 6.36326083zM16.7233033 5.55376048C16.7306541 5.55743585 16.7380048 5.55927354 16.7444367 5.56386775 16.7573005 5.57121849 16.888695 5.85697855 16.8730747 5.91394679 16.8546978 5.97642809 16.643364 5.93967438 16.5321841 5.95621355 16.4632709 5.84503359 16.3943577 5.737529 16.3226879 5.6318621 16.3318764 5.62451136 16.3419836 5.61716062 16.3548474 5.60705335 16.4044649 5.57305618 16.4706216 5.54732858 16.5376971 5.53722131 16.6010972 5.54181553 16.6626597 5.54732858 16.7233033 5.55376048zM15.9376929 5.11087833C15.8338637 4.98224037 15.7272779 4.85911546 15.6170168 4.74058476 15.7125764 4.65145702 15.9257479 4.55497855 15.9891481 4.64043091 16.0580613 4.73323402 15.9330987 5.01072449 15.9376929 5.11087833zM14.7698439 4.53384517C14.7799512 4.54854665 14.7735193 4.63767438 14.7863831 4.66891503 14.850702 4.81592985 14.7523859 4.72312675 14.7156322 4.91516486 14.6797973 5.10536528 14.8084353 5.00153606 14.6476378 5.16509005 14.6246668 5.18806112 14.6044522 5.22665251 14.5851565 5.27167579 14.5621855 5.27259464 14.5382956 5.27351348 14.5134868 5.27535116 14.3205299 4.96478236 14.1183845 4.68177883 13.9061318 4.43001595 14.3223675 4.41255794 14.4859215 4.4116391 14.8203802 4.41623331 14.8488644 4.46860734 14.7827077 4.49157841 14.7698439 4.53384517zM12.8090337 3.45512392C12.7088799 3.39539915 12.6068884 3.3402686 12.5058157 3.29248878 12.5490013 3.29248878 12.5921869 3.29340762 12.6316971 3.29432646 12.8384367 3.32556711 13.0451763 3.37334693 13.2491594 3.43858476 13.1186837 3.44134128 12.988208 3.44777318 12.8090337 3.45512392zM11.6319963 3.56722272C11.5217352 3.46706888 11.4491466 3.40183105 11.3783958 3.35037586 11.5447063 3.33291785 11.7055037 3.31821637 11.8607881 3.30902795 12.0326117 3.34578165 12.2053541 3.40550642 12.3762589 3.48636457 12.1364409 3.50657911 11.8874346 3.53322555 11.6319963 3.56722272zM13.1646258 7.13876401C13.2032172 7.25821355 13.2408898 7.38041962 13.2785623 7.50354453 13.2528347 7.51457064 13.2215941 7.52835328 13.210568 7.53019097 13.1581939 7.53754171 13.1839215 7.71395949 13.181165 7.71947255 13.163707 7.76173931 13.1802462 7.81870755 13.1949476 7.86464968 13.210568 7.91702371 13.2730493 7.87475695 13.2877507 7.8995657 13.332774 7.97307311 13.1719766 8.16970543 13.3125595 8.17797502 13.3419625 8.1798127 13.3980119 8.15684164 13.4568178 8.12100677 13.4972469 8.27077812 13.5376759 8.42146831 13.578105 8.57491503 12.9799385 8.65761087 12.3790154 8.75868356 11.785443 8.87629541 11.6558862 8.30753183 11.5474628 7.84167862 11.4463901 7.42728059 12.0151537 7.31518179 12.5921869 7.21778447 13.1646258 7.13876401zM13.8546766 8.53724248C13.78852 8.28180423 13.7214445 8.03371673 13.6516124 7.79297996 13.9125637 7.70201454 13.8170041 8.00707029 13.9291029 7.91426718 13.9483986 7.89864686 14.07428 7.9813427 13.9336971 8.04106747 13.8436505 8.07965886 13.9594247 8.15040974 13.9906653 8.17246196 14.0816308 8.23402442 14.1946484 7.81870755 14.4243591 8.0116645 14.4454924 8.02912251 14.4252779 8.05485011 14.4050634 8.07965886 14.38393 8.10538645 14.3949561 8.12192562 14.354527 8.14581553 14.3067472 8.17429965 14.2948023 8.18900113 14.2534543 8.1991084 14.232321 8.20370261 14.2681558 8.30845067 14.2709124 8.31488257 14.2874515 8.36817544 14.156057 8.45546549 14.0788742 8.51059605 14.0035291 8.51886563 13.9291029 8.52805406 13.8546766 8.53724248zM16.0672497 9.363282C16.0350902 9.21534834 16.0001742 9.06925236 15.9652582 8.92499407 16.0341713 9.00033917 16.1058411 9.06833352 16.217021 9.07752195 16.2648008 9.08211616 16.3079865 9.08762922 16.3493344 9.0958988 16.398033 9.10508723 16.4402998 9.15929894 16.491755 9.18043232 16.5468855 9.20432223 16.6093668 9.29161228 16.6305002 9.3393921 16.6396886 9.35960663 16.6562278 9.47997502 16.6038538 9.50845914 16.5496421 9.5378621 16.4595955 9.53969979 16.3952765 9.53969979 16.357604 9.53969979 16.3043111 9.57461581 16.3079865 9.63893479 16.3079865 9.65547396 16.3070676 9.66741891 16.3052299 9.67660734L16.1334064 9.67660734C16.112273 9.57185928 16.0902207 9.46711122 16.0672497 9.363282zM18.8495052 7.85270473C19.0259229 7.88302653 19.4191876 7.85821778 19.5478255 8.15959817 19.6599243 8.42238716 19.2023407 8.27445349 19.0047896 8.26434622 18.9551721 8.12468215 18.9037169 7.98777459 18.8495052 7.85270473zM15.1612709 4.00091644C15.1484071 4.00918603 15.0252821 3.956812 14.9894473 3.98621496 14.9931227 4.00367297 14.9683139 4.06615427 14.9747458 4.07258617 14.9839342 4.08177459 14.9637197 4.08085575 14.9297225 4.1056645 14.6834727 3.91822061 14.5401332 3.81255371 14.3618778 3.70504912 14.49511 3.71791291 14.6219102 3.73445208 14.7386032 3.75466662 14.8773485 3.81255371 15.0133372 3.87595385 15.1484071 3.94486704 15.1667839 3.96967579 15.1750535 3.99080917 15.1612709 4.00091644zM11.0007514 3.396318C11.1064183 3.44317897 11.2130041 3.51484869 11.3232652 3.60948948 11.1303083 3.63797361 10.9355136 3.6701331 10.740719 3.70504912 10.7315306 3.70229259 10.7241798 3.69769838 10.7195856 3.68759111 10.7214233 3.68483458 10.6929392 3.66186351 10.6607797 3.66002583 10.6056491 3.6572693 10.5284663 3.67564615 10.4907938 3.66737657 10.4494459 3.65818814 10.4613908 3.64256782 10.4714981 3.61959675 10.4907938 3.57457347 10.6074868 3.61775907 10.6231071 3.49279647 10.624026 3.47993267 10.6258637 3.46706888 10.629539 3.45328624 10.7535828 3.43215286 10.8776265 3.41377601 11.0007514 3.396318zM9.11528638 7.70017685C8.31497445 7.9252933 8.0916957 7.99696302 7.4429928 8.21105335 7.43931743 8.15132858 7.43564206 8.09160381 7.43288553 8.03279788 7.60838447 7.99512534 7.57254961 7.82330176 7.57254961 7.81503218 7.57163077 7.76541468 7.62859901 7.61104912 7.62859901 7.61104912 7.75815582 7.59083458 7.69016147 7.31701948 7.76183119 7.26372661 7.83350092 7.21135258 7.75080508 7.0716885 7.692918 7.09190303 7.64697586 7.1084422 7.6047091 7.14519591 7.58541341 7.18562498 7.56611771 7.22605406 7.49077262 7.20951489 7.49536683 7.1837873 7.4990422 7.16173507 7.4687204 7.09098419 7.42369711 7.07260734 7.42553479 7.03034058 7.42645363 6.98715498 7.42829132 6.94488821 7.90517064 6.78684728 8.16152773 6.70598913 8.46015159 6.61869908 8.41972251 6.71058335 8.41237177 6.83370826 8.43074862 6.89618956 8.44545011 6.94305053 8.49874298 6.92559252 8.52538941 6.96877812 8.54652279 7.0027753 8.52355173 7.10017262 8.54376627 7.12590021 8.57776344 7.1709235 8.64208243 7.24810628 8.64667664 7.25361934 8.70456373 7.31885716 8.74407396 7.44106323 8.79736683 7.44933282 8.82768864 7.45392703 8.8763873 7.46311546 8.89568299 7.49343726 8.90946563 7.51457064 8.98940494 7.51548948 9.00318758 7.53202865 9.03902244 7.57521426 9.06934425 7.58807805 9.09874721 7.58532152 9.10426027 7.62299407 9.10977332 7.66158546 9.11528638 7.70017685zM8.34070205 5.16233352C8.34070205 5.16233352 8.34070205 5.16325236 8.3397832 5.16325236 8.10364065 5.2330844 7.92538518 5.29097149 7.64881355 5.38285575 7.67086577 5.30291644 7.69383684 5.22665251 7.71772675 5.15222625 8.10915371 4.93170402 8.29292223 5.16509005 8.34070205 5.16233352zM6.91373945 5.21103218C7.00286718 5.20827565 7.10210219 5.34334552 7.14896316 5.34610205 7.20409372 5.34793973 7.32629979 5.23675977 7.43288553 5.22113945 7.40715794 5.30567297 7.38234919 5.39112534 7.36029697 5.48025307L7.31159831 5.49679224C7.25095469 5.51884446 7.19031108 5.53997784 7.12874862 5.56203006 6.83380014 5.67045349 6.56733578 5.7761204 6.32016711 5.88086845 6.45431814 5.59694608 6.6086837 5.33967015 6.77958843 5.11087833 6.79704644 5.10352759 6.81542329 5.09617685 6.8328813 5.08790727 6.84850162 5.14855088 6.86687848 5.21286987 6.91373945 5.21103218zM5.89290529 5.56203006C6.03716359 5.4765777 6.19336683 5.39204418 6.36243387 5.3084295 6.26687424 5.457282 6.17958419 5.61716062 6.09964488 5.78347114 6.06381002 5.7439609 5.99857219 5.7072072 5.9664127 5.70261299 5.95446775 5.70169414 5.88279802 5.67412886 5.82215441 5.6447259 5.84604432 5.61716062 5.86901538 5.5886765 5.89290529 5.56203006zM5.60806408 5.95161934C5.62735977 5.93416133 5.93700974 5.90475836 5.95722428 5.94059323 5.96457502 5.95529471 5.98754608 5.96723966 6.01143599 5.97367156 6.00408525 5.99112957 5.99581567 6.00858758 5.98754608 6.02604559 5.74313394 6.13722555 5.51066676 6.25024319 5.29657643 6.36509852 5.37927227 6.23186634 5.46656231 6.10322837 5.55752773 5.97826577 5.57957996 5.96907735 5.59795681 5.95988892 5.60806408 5.95161934zM4.28309301 7.31793832C4.47604996 7.15989739 4.55047622 7.1020103 4.69657219 7.00461299 4.545882 7.33723402 4.42000056 7.6882319 4.31984672 8.05301242 4.23163783 8.10814298 4.15904926 8.15408511 4.0974868 8.19359534 4.10851291 8.15408511 4.11586366 8.09987339 4.0910549 8.061282 4.07543458 8.0373921 4.02489824 7.95929047 3.99641411 7.86832505 4.06257078 7.72957982 4.15169852 7.55499972 4.28309301 7.31793832zM5.42705208 9.28885575C5.42888977 9.41657488 5.43348398 9.54613169 5.44083472 9.67660734L4.99703373 9.67660734C4.97498151 9.63985363 4.96119887 9.57553465 4.95384813 9.51580988 5.10545716 9.43954594 5.26257925 9.36420085 5.42705208 9.28885575zM9.75204432 9.67660734C9.74836895 9.66006817 9.74469358 9.64261016 9.74101821 9.626071 10.3419413 9.46803006 10.9548093 9.32377177 11.569515 9.19789033 11.6035122 9.35501242 11.6393471 9.51489104 11.6751819 9.67660734L9.75204432 9.67660734zM11.9636985 9.67660734C11.9333767 9.53969979 11.9030549 9.40371108 11.8736519 9.27139774L11.8451678 9.14367862C12.6941784 8.98288116 12.9422659 8.94520861 13.6442617 8.84229824 13.7021488 9.07844079 13.7600359 9.33112251 13.8215983 9.61045067 13.8261925 9.63158405 13.8317056 9.65455512 13.8362998 9.67660734L11.9636985 9.67660734zM14.9407486 9.62055794C15.0041488 9.56910275 14.9894473 9.50018956 15.0390648 9.42484446 15.0776562 9.36695737 15.1814854 9.30998913 15.1805665 9.26864121 15.1805665 9.24199478 15.1235983 9.17308158 15.1217606 9.11703218 15.1199229 9.07017121 15.1686216 9.03249866 15.1971057 9.01412181 15.2761262 8.9645043 15.393738 9.03709287 15.4396802 8.99390727 15.5168629 8.92407523 15.5591297 8.78349231 15.6363125 8.73479365 15.6941996 8.95531588 15.7484113 9.18227001 15.7989476 9.41289951 15.8182433 9.5011084 15.8357013 9.58839845 15.8540782 9.67660734L14.9039949 9.67660734C14.9076703 9.65731164 14.9186964 9.63801595 14.9407486 9.62055794zM11.2093287 20.7523363C6.73824051 18.7318014 4.10943176 15.6803251 2.86348116 11.0420075L11.2093287 11.0420075 11.2093287 20.7523363zM12.57381 20.7449856L12.57381 11.0420075 20.8433936 11.0420075C19.7279187 14.7605636 17.3536294 18.4929023 12.57381 20.7449856zM21.1989857 9.67660734L21.1714205 9.67660734C19.9603859 5.68423613 16.246424 2.76966733 11.8635447 2.76966733 7.48066535 2.76966733 3.76578462 5.68423613 2.55383119 9.67660734L2.53912971 9.67660734C2.53637318 9.6628247 2.53361665 9.65087975 2.53086013 9.63709711 1.86378038 6.26586351 2.00160677 3.16936387 2.15413465 1.55863275L21.588575 1.55863275C21.7962335 3.4762573 21.9092511 6.50200607 21.1989857 9.67660734zM28.6172617 3.37619534C28.5409977 3.3817084 28.4619773 3.39365335 28.3774438 3.4120302 28.2947479 3.43040706 28.2047013 3.45245928 28.1100606 3.47543035 28.0135821 3.49840141 27.9253732 3.52229132 27.8426773 3.54526239 27.7599815 3.56731461 27.6837176 3.59396104 27.6138855 3.62428285 27.5440535 3.6555235 27.482491 3.69319605 27.4264416 3.73913818 27.3703922 3.78508031 27.3216936 3.8429674 27.278508 3.91279944 27.2187832 4.0111156 27.1811107 4.11494481 27.1645715 4.22336824 27.1471135 4.33271052 27.1544642 4.44848469 27.184786 4.57069076 27.2095948 4.67268229 27.2481862 4.76548539 27.2996414 4.85001891 27.3510965 4.93455243 27.4154155 5.00530332 27.4925983 5.06227156 27.5688622 5.1192398 27.6570711 5.16150656 27.7563061 5.188153 27.85646 5.21571828 27.9658023 5.22398786 28.0861706 5.21388059L27.9786661 4.77467382C27.8831064 4.77375498 27.7985729 4.75170275 27.7241466 4.70851715 27.6488016 4.66533155 27.5982652 4.58906761 27.5706999 4.47880649 27.5559984 4.41908172 27.5532419 4.36211348 27.5624303 4.31065829 27.5716188 4.25828426 27.5899956 4.21234213 27.6175609 4.1728319 27.6359378 4.14618546 27.6561523 4.12229555 27.680961 4.10116217 27.7057698 4.07910995 27.739767 4.05889541 27.7829526 4.03959972 27.8261382 4.01938518 27.8831064 3.99917064 27.9529385 3.9789561 28.0236893 3.95782272 28.1100606 3.93485166 28.2166463 3.90820522 28.3223132 3.88247763 28.4114409 3.86226309 28.4831107 3.84756161 28.5538615 3.83286013 28.6135863 3.82459054 28.6613661 3.82091517 28.7091459 3.81815865 28.7486562 3.82091517 28.7808157 3.82826591 28.8111375 3.83561665 28.8423781 3.84756161 28.8699434 3.86226309 28.9122102 3.88431531 28.9508016 3.91647481 28.9820422 3.95874157 29.0151205 4.00008948 29.0390104 4.05154467 29.0537119 4.11126944 29.0803584 4.22153056 29.0720888 4.31341482 29.0252278 4.38600339 28.9802045 4.4595108 28.9158855 4.51831673 28.831352 4.56334001L28.9406943 5.00346563C29.0518742 4.95568582 29.1455962 4.89596104 29.2200224 4.82521016 29.2962864 4.75537812 29.3532546 4.6772765 29.3955214 4.59090529 29.4368693 4.50453409 29.4607592 4.41264982 29.4671911 4.31433366 29.4745418 4.21693634 29.4644346 4.11586366 29.438707 4.01295328 29.409304 3.88982837 29.3606054 3.78416147 29.2944487 3.69595258 29.2292109 3.60774368 29.146515 3.53423627 29.0481989 3.4745115 28.9783668 3.43224474 28.9076159 3.40376062 28.8368651 3.38905914 28.7661142 3.3752765 28.6926068 3.37068229 28.6172617 3.37619534M25.5507163 19.5021591C25.5222322 19.4360024 25.4845596 19.3726023 25.4376987 19.3128775 25.3899188 19.2540716 25.3357071 19.1952656 25.272307 19.1373785 25.2107445 19.0785726 25.1427502 19.0170102 25.0683239 18.9517723 24.9948165 18.8865345 24.9249845 18.8258909 24.8597466 18.7707603 24.7945088 18.7156298 24.7301898 18.66785 24.664952 18.6274209 24.600633 18.5879107 24.5344764 18.5575888 24.4646443 18.5364555 24.3957311 18.5171598 24.320386 18.509809 24.238609 18.5144032 24.1237537 18.5208351 24.017168 18.5484004 23.9170141 18.5952614 23.8177791 18.6439601 23.7258948 18.7147109 23.643199 18.8084329 23.5724481 18.8865345 23.5182364 18.971068 23.4778073 19.0611146 23.4382971 19.1511612 23.4162449 19.2448831 23.4125695 19.3395239 23.4088941 19.4360024 23.4245145 19.5324809 23.4585116 19.6289594 23.49159 19.7263567 23.5467205 19.8219163 23.6239033 19.9165571L23.9243649 19.578423C23.871072 19.4994025 23.8407502 19.4167067 23.8343183 19.3303355 23.8278864 19.2448831 23.8618836 19.1594308 23.9372287 19.0748972 23.9785766 19.0289551 24.0235999 18.9949579 24.0713797 18.9729057 24.1200783 18.9508535 24.1678582 18.9398274 24.215638 18.9407462 24.2477975 18.9398274 24.2790381 18.9435028 24.3111976 18.9517723 24.3424382 18.9600419 24.3782731 18.9765811 24.4187022 19.0013898 24.4600501 19.0261986 24.5087488 19.0611146 24.565717 19.1070567 24.6217664 19.1529989 24.6906796 19.2127236 24.7724566 19.2853122 24.8533147 19.3569819 24.9203903 19.4185444 24.9727643 19.4690807 25.0260572 19.5205359 25.0655674 19.5637215 25.0958892 19.6023129 25.1252922 19.6399855 25.1455067 19.6739826 25.1574517 19.7033856 25.1693966 19.7346263 25.1758285 19.7649481 25.1795039 19.7971076 25.1850169 19.8448874 25.1804227 19.8945049 25.1638836 19.9441224 25.1482632 19.9946587 25.120698 20.0424385 25.07935 20.0892995 25.0040049 20.173833 24.9222279 20.2179375 24.8367756 20.2216128 24.7504044 20.2243694 24.6658709 20.2050737 24.5813373 20.1618881L24.2808758 20.5000222C24.3828673 20.5643411 24.48394 20.6084456 24.5850127 20.6304978 24.6860854 20.65255 24.7825639 20.6562254 24.8772047 20.6415239 24.9727643 20.6268224 25.0609732 20.5946629 25.1455067 20.5450454 25.2291214 20.4954279 25.307223 20.4301901 25.3788927 20.3502508 25.4625074 20.2565289 25.5213133 20.1572939 25.5571482 20.0534646 25.5929831 19.9487166 25.6067657 19.8393743 25.6003338 19.724519 25.5957396 19.642742 25.5792004 19.5683157 25.5507163 19.5021591"/>
    </g>
    <polygon fill="#A8996E" points="41.588 19.688 41.02 18.794 41.489 18.496 41.972 19.257 42.308 19.044 41.825 18.282 42.277 17.996 42.845 18.89 43.181 18.676 42.373 17.406 40.445 18.631 41.252 19.901"/>
    <polygon fill="#A8996E" points="34.381 43.619 35.439 43.917 35.738 42.858 34.68 42.559"/>
    <polygon fill="#A8996E" points="33.275 10.564 32.85 10.427 32.149 12.602 32.574 12.738"/>
    <polygon fill="#A8996E" points="15.702 16.448 15.681 15.348 14.58 15.37 14.603 16.47"/>
    <polygon fill="#A8996E" points="18.274 14.902 16.908 13.069 16.551 13.336 17.917 15.168"/>
    <polygon fill="#A8996E" points="19.617 14.024 18.946 12.791 20.412 13.591 20.761 13.401 19.67 11.393 19.278 11.606 19.947 12.836 18.483 12.039 18.133 12.229 19.224 14.236"/>
    <polygon fill="#A8996E" points="14.426 18.855 14.085 18.649 13.538 19.555 13.063 19.269 13.529 18.498 13.189 18.292 12.723 19.064 12.263 18.787 12.81 17.88 12.469 17.674 11.692 18.963 13.648 20.143"/>
    <g transform="translate(0 .043)">
      <mask id="gia-logo-d" fill="#fff">
        <use xlink:href="#gia-logo-c"/>
      </mask>
      <path fill="#A8996E" d="M51.3191983,29.5703771 C52.4649951,29.1991647 55.0441863,28.3878267 55.0441863,28.3878267 L51.3954622,26.949838 C51.3954622,26.949838 53.8506097,25.8453891 54.964247,25.3427822 L51.1878038,24.3302176 C52.214151,23.6750829 54.5590374,22.3684886 54.5590374,22.3684886 L50.6861157,21.7317307 L53.7771023,19.3877632 L49.8995865,19.2205338 L52.7470797,16.5457829 L48.8530247,16.8085719 C49.6377163,15.9025931 50.5786112,14.753121 51.3862738,13.8581682 L47.5427551,14.5261668 L49.7176556,11.2945973 L45.9908299,12.4091534 C46.5255963,11.3276757 47.7862484,8.94144135 47.7862484,8.94144135 L44.35529,10.2847893 L45.604916,6.83821059 L42.2263317,8.71908144 C42.5313874,7.55123246 42.9623246,6.14999746 43.2554354,4.97020353 L40.0624573,7.2351506 C40.0624573,7.2351506 40.4713423,4.53834749 40.6560296,3.38060579 L37.7377855,5.96714778 L37.9344178,2.06941736 L37.7377855,2.29912802 C36.9319605,3.18397347 36.1445124,4.16621623 35.3046902,4.96285279 L35.0749795,1.11657756 L32.7925745,4.26545124 C32.5858349,3.07463119 32.3175328,1.66788313 32.1548977,0.455929711 L30.1940875,3.81613719 L29.1043402,0.113201411 L27.575386,3.65350205 L26.0822668,0.104931828 L24.9548469,3.81613719 L23.0730572,0.427445589 L22.3683049,4.23145406 L20.1281665,1.07247311 L19.8240296,4.94171941 L17.2549457,2.04736514 L17.3890967,5.93498829 L14.4883105,3.36039125 L15.0533987,7.19104615 L11.9265773,4.91047876 L12.8812548,8.68600311 C12.8812548,8.68600311 10.579554,7.36103204 9.53115455,6.76102781 L10.9140127,10.4079142 L7.33879605,8.8927427 L9.10297389,12.3328895 L5.40095695,11.2109826 L7.56483133,14.4287695 L3.7378518,13.7249361 L6.22148342,16.732308 L2.37153282,16.4189826 L5.15103176,19.1451887 L1.28178546,19.2444237 L4.36542131,21.6554668 L0.523740296,22.191152 L3.86373324,24.2208754 C2.7160988,24.5700356 1.24043754,24.8760102 0.0946407904,25.2141442 L3.60829499,26.8175246 C2.48179393,27.2870532 0,28.257351 0,28.257351 C0,28.257351 2.61962032,29.045718 3.71028652,29.4931944 L0.235223712,31.2720737 C0.235223712,31.2720737 2.89159774,31.8298112 4.07047283,32.081574 C3.07628511,32.7468161 0.799393084,34.2426919 0.799393084,34.2426919 L4.70447424,34.6240116 C3.80860268,35.4105409 1.69342696,37.1489911 1.69342696,37.1489911 L5.62147918,37.1140751 L2.90538038,39.9385973 L6.79943543,39.449773 C6.0680367,40.4108824 4.40585039,42.55638 4.40585039,42.55638 L8.24109951,41.6761287 L6.19943119,45.014284 L9.92533804,43.7187159 L8.25488215,47.238802 C8.25488215,47.238802 10.7201369,45.9900948 11.799777,45.5527258 L10.5464757,49.2749572 L13.8322569,47.1855091 L13.0392957,51.0170829 L16.0779083,48.6170659 L15.7011828,52.4706919 L18.5073282,49.6544392 L18.4797629,53.6091379 C18.4797629,53.6091379 20.2062682,51.4149417 20.9698264,50.5539862 C21.1352181,51.752157 21.4476246,54.4581485 21.4476246,54.4581485 L23.5297219,51.1135613 L24.3704629,54.951567 L24.5404488,54.6474301 L26.1677191,51.3708373 L27.4660438,55.1307413 L28.8240932,51.4976375 L30.5147636,54.9708627 L31.429012,51.1310193 C31.429012,51.1310193 32.8881341,53.4437462 33.5000833,54.4802007 L33.9944206,50.5539862 C33.9944206,50.5539862 35.6556881,52.7196982 36.4302724,53.6587554 L36.5359393,49.8326947 L39.2244728,52.4973383 L38.9093098,48.6731153 L41.8946295,51.0878337 C41.6557304,49.9843037 41.0943176,47.2121555 41.0943176,47.2121555 C42.0976937,47.8994498 43.392343,48.692411 44.4076641,49.3475458 L43.1966295,45.6069375 L46.7130402,47.3398747 C46.7130402,47.3398747 45.5323275,44.8534865 45.073825,43.7729276 C46.1553028,44.1661922 47.6787438,44.7000398 48.7491955,45.13649 C48.8796711,45.2348062 46.8242202,41.7542303 46.8242202,41.7542303 L50.5629908,42.678586 L48.2576147,39.543495 L52.0836754,40.0525338 L49.3749273,37.190339 L53.3057361,37.2803856 L50.3149033,34.732435 L54.2135526,34.3786806 L50.9700381,32.1679452 L54.7933423,31.4172508 L51.3191983,29.5703771 Z M54.0380536,28.2380553 L48.9283698,28.0524491 L51.2328271,27.1354442 C52.1691277,27.4956305 53.0989965,27.8659241 54.0380536,28.2380553 Z M47.9893126,33.1070024 L49.8802908,34.5615303 L47.4655723,34.732435 C47.4655723,34.732435 47.8367848,33.6527949 47.9893126,33.1070024 Z M47.0732265,19.3519283 L49.4723246,19.3877632 C48.8704827,19.9335557 48.3072322,20.4876178 47.6511785,20.9791986 L47.0732265,19.3519283 Z M47.8340282,21.50202 L50.2083176,21.8576121 C49.5210233,22.3262219 48.9614481,22.8021824 48.2511828,23.2276065 L47.8340282,21.50202 Z M48.4818123,30.8034639 L50.5767735,32.1137335 L48.1427594,32.5069982 L48.4818123,30.8034639 Z M48.3816584,23.8285296 L50.6723331,24.4221019 L48.6444474,25.5302261 L48.3816584,23.8285296 Z M48.6986591,28.4999255 L50.9489047,29.5474061 C50.1743204,29.7991689 49.3537939,29.9847752 48.5681835,30.2025409 L48.6986591,28.4999255 Z M48.6664996,26.1430941 L51.0031164,26.949838 C50.2707989,27.2668387 49.4851884,27.5829205 48.7207114,27.8879763 L48.6664996,26.1430941 Z M53.9397375,25.3014343 L48.8530247,25.6937801 L51.0251687,24.5369572 L53.9397375,25.3014343 Z M53.5032872,22.4374018 L48.5139718,23.3580821 L50.5216429,21.9393891 L53.5032872,22.4374018 Z M52.804048,19.5935839 L47.958072,21.0775147 L49.8233225,19.4603517 L52.804048,19.5935839 Z M51.7896457,16.8407314 L47.0952788,18.8823997 L48.7749231,17.0263376 C48.7749231,17.0263376 50.7936203,16.9068881 51.7896457,16.8407314 Z M46.8334086,18.8061358 L46.0257459,17.2560483 C46.8444347,17.1678394 48.4211687,17.0263376 48.4211687,17.0263376 C48.4211687,17.0263376 47.368175,18.1840793 46.8334086,18.8061358 Z M50.3930049,14.2698097 L45.9173225,16.849001 L47.3497982,14.8027385 C48.343067,14.6281584 49.4107622,14.4563348 50.3930049,14.2698097 Z M45.7087452,16.732308 L44.7366097,15.2107046 L47.0226902,14.8633821 L45.7087452,16.732308 Z M48.8530247,11.8082303 L44.7366097,14.7889558 L45.9908299,12.6489713 C46.9528582,12.365049 47.9130487,12.1031788 48.8530247,11.8082303 Z M44.4526874,14.7889558 L44.3975568,14.7889558 L43.328024,13.456634 L45.6857742,12.6489713 L44.4526874,14.7889558 Z M46.9629654,9.54787749 L43.2407339,12.9871054 L44.2716754,10.6128161 L46.9629654,9.54787749 Z M42.9356782,13.042236 L41.6676754,11.8302826 C42.4009118,11.448044 43.1745773,11.0878577 43.9500805,10.7607498 L42.9356782,13.042236 Z M42.2814622,9.00300381 L44.8992449,7.50712802 L41.5151475,11.3598351 L42.2814622,9.00300381 Z M41.2541962,11.4149657 L39.8667438,10.3674851 L41.9635427,9.05813437 C41.7898814,9.81066648 41.4719619,10.6183291 41.2541962,11.4149657 Z M40.1525039,7.45199746 L42.5635469,5.72732985 L39.6600042,9.91908991 L40.1525039,7.45199746 Z M39.3981341,9.99535385 C38.9065533,9.74542865 38.4149725,9.37329739 37.9022583,9.11142724 L39.8667438,7.56133973 C39.702271,8.3690024 39.5515808,9.18769118 39.3981341,9.99535385 Z M37.8471277,6.23085561 L40.0753211,4.21032068 L37.6394693,8.68600311 L37.8471277,6.23085561 Z M35.469163,5.18153733 L37.4557008,2.95426281 L35.5114298,7.67160085 C35.5004037,6.91814989 35.446192,6.02227833 35.469163,5.18153733 Z M37.5861764,6.32825293 L37.378518,8.8173976 L35.8072971,8.08508003 L37.5861764,6.32825293 Z M35.206374,5.33498405 L35.2495596,7.8452621 L33.6342343,7.29946958 L33.6342343,7.22320565 L35.206374,5.33498405 Z M34.6826337,2.03725787 L33.2630219,6.92917601 L32.9460212,4.44003133 L34.6826337,2.03725787 Z M32.7163105,4.6247187 L33.0562823,7.11386337 L31.3187509,6.75275822 L32.7163105,4.6247187 Z M31.8268709,1.49697841 L30.9585646,6.40451687 L30.3806126,4.04676669 L31.8268709,1.49697841 Z M30.1407946,4.21032068 L30.774796,6.64433479 L29.0161313,6.45780974 L30.1407946,4.21032068 Z M28.9398673,1.06604121 L28.6228666,6.17480621 L27.7315893,3.89975187 L28.9398673,1.06604121 Z M27.569873,4.17908003 C27.569873,4.17908003 28.1763091,5.62901369 28.4390981,6.4375952 L26.6905406,6.40451687 L27.569873,4.17908003 Z M26.0032463,1.08809344 L26.2651164,6.17480621 L25.1625053,3.96958391 L26.0032463,1.08809344 Z M24.9879252,4.21032068 L26.1125886,6.45780974 L24.3548426,6.64433479 L24.9879252,4.21032068 Z M23.0987848,1.4041753 C23.0987848,1.4041753 23.6445773,4.7561132 23.9064474,6.4375952 L22.5750445,4.36284855 L23.0987848,1.4041753 Z M22.44365,4.60266648 L23.8081313,6.72059873 L22.1055159,7.11386337 L22.44365,4.60266648 Z M20.2384277,2.05931009 L21.602909,6.92917601 L20.0427142,5.10067918 L20.2384277,2.05931009 Z M19.9894213,5.4415698 L21.5275639,7.24433903 C21.0019859,7.45199746 20.4148454,7.62657756 19.8782414,7.8452621 L19.9894213,5.4415698 Z M19.3756344,7.71478645 L17.6013493,6.08200311 L17.4883317,2.9992861 L19.3756344,7.71478645 Z M19.3545011,8.06302781 L17.749283,8.79534538 L17.5875667,6.40267918 L19.3545011,8.06302781 Z M6.3850374,27.790579 C5.60953423,27.5287088 4.82392378,27.1685225 4.04933945,26.873574 C4.81289767,26.5685183 5.63158645,26.3185931 6.42914185,26.0558041 C6.33082569,26.6006778 6.39698236,27.2447865 6.3850374,27.790579 Z M6.5164319,30.1483291 L4.10263232,29.4399015 C4.10263232,29.4399015 5.62147918,28.730555 6.3850374,28.391502 L6.5164319,30.1483291 Z M4.25699788,24.2760059 L6.691012,23.7292946 L6.48335356,25.4539622 L4.25699788,24.2760059 Z M6.59269584,30.6941217 L6.93082992,32.4307342 L4.46281863,32.0034724 L6.59269584,30.6941217 Z M4.75868596,21.7317307 C5.57829358,21.6104435 6.42914185,21.5562318 7.26896401,21.4698606 L6.82240649,23.1724759 L4.75868596,21.7317307 Z M7.03925335,32.998579 C7.22577841,33.5232381 7.38933239,34.1122162 7.58688356,34.6570899 L5.09682004,34.5266143 L7.03925335,32.998579 Z M7.38657586,20.9837928 L5.70876923,19.3804124 L8.05457445,19.2756644 L7.38657586,20.9837928 Z M15.3161877,7.59809344 L17.3073197,9.05813437 L15.7305857,9.99535385 L15.3161877,7.59809344 Z M15.3299704,10.2719255 L13.895657,11.3828062 L13.2138758,9.11142724 L15.3299704,10.2719255 Z M14.8448215,4.26545124 L17.258621,8.74021482 L15.2877036,7.28293042 L14.8448215,4.26545124 Z M12.377729,5.80359379 L15.2601383,9.99535385 L13.1596641,8.79810191 L12.377729,5.80359379 Z M10.0751094,7.5843108 L13.4049951,11.4700963 L11.1951785,10.4768274 L10.0751094,7.5843108 Z M13.5005547,11.7319664 L12.1930416,12.9871054 L11.2622541,10.7901527 L13.5005547,11.7319664 Z M7.97922936,9.63516754 C9.213235,10.8259876 10.4904263,11.9295176 11.7244319,13.1184999 L9.42089344,12.4008838 L7.97922936,9.63516754 Z M11.799777,13.4024223 C11.4294834,13.8600059 11.0472449,14.3185084 10.6751136,14.7678224 L9.54309951,12.7289107 L11.799777,13.4024223 Z M6.1240861,11.8835754 C7.4885674,12.9108415 8.87418207,13.9041104 10.2276373,14.951591 L7.83680875,14.4333637 L6.1240861,11.8835754 Z M10.3360607,15.21438 L9.39792237,16.6780963 L9.37311362,16.7258761 L7.95993366,14.70626 L10.3360607,15.21438 Z M4.55102752,14.3515867 L8.95136486,16.9169953 L6.55410445,16.7396587 L4.55102752,14.3515867 Z M9.08184051,17.1788655 L8.29623006,18.7510052 L6.70387579,17.0052042 L9.08184051,17.1788655 Z M3.27199859,16.965694 C4.83311221,17.642881 6.30877347,18.3476333 7.86896824,19.0128754 L5.46343825,19.1148669 L3.27199859,16.965694 Z M2.19327735,19.6900624 L7.06130558,21.2410687 L4.59513197,21.50202 L2.19327735,19.6900624 Z M1.48393084,22.5173411 L6.48335356,23.522555 L4.02820607,24.0462953 L1.48393084,22.5173411 Z M1.08974735,25.4337476 L6.16635286,25.8793863 L3.80860268,26.6659156 L1.08974735,25.4337476 Z M1.01348342,28.3363715 L6.1240861,28.2380553 L3.89589273,29.2542953 L1.01348342,28.3363715 Z M1.27535356,31.2509403 L6.29774735,30.563646 L4.23494566,31.8518634 L1.27535356,31.2509403 Z M1.84319831,34.1342685 L6.77830205,32.899344 L4.83494989,34.3943009 L1.84319831,34.1342685 Z M2.7160988,36.9064167 L7.47662244,35.1486707 L5.72990261,36.8512861 L2.7160988,36.9064167 Z M7.77065208,35.2038013 L8.48091743,36.8301527 L5.99177276,36.9284689 L7.77065208,35.2038013 Z M3.89589273,39.5820864 L8.42670572,37.2987625 L6.87661821,39.1879029 L3.89589273,39.5820864 Z M8.71062809,37.3548119 C9.01660268,37.8234216 9.31063232,38.3471619 9.6055808,38.84885 L7.1394072,39.263248 L8.71062809,37.3548119 Z M5.38166126,42.0914456 L9.6055808,39.3404308 L8.26315173,41.4160963 L5.38166126,42.0914456 Z M9.92166267,39.3735091 L10.9700621,40.7600426 L8.60036697,41.3857745 L9.92166267,39.3735091 Z M7.08519548,44.4510335 L11.0472449,41.2295712 L9.95198447,43.432037 L7.08519548,44.4510335 Z M11.3311673,41.2295712 L12.5100423,42.4847102 L10.2800113,43.3640426 L11.3311673,41.2295712 Z M11.7850755,45.2384816 L9.08184051,46.5294555 L12.640518,42.95332 L11.7850755,45.2384816 Z M12.9354665,42.9321866 L14.2457361,44.05685 L12.0947255,45.1383277 L12.9354665,42.9321866 Z M13.7982597,46.9172071 L11.2751179,48.5104802 L14.4193973,44.5043263 L13.7982597,46.9172071 Z M14.7143458,44.4280624 L16.1238504,45.4213313 L14.1134227,46.7747865 L14.7143458,44.4280624 Z M16.0650445,48.3184421 L13.6659464,50.192881 L16.3636683,45.8366481 L16.0650445,48.3184421 Z M16.6246196,45.7603842 L18.1425476,46.5781541 L16.2874044,48.1943983 L16.6246196,45.7603842 Z M16.2552449,51.5564435 L18.438415,46.9723376 L18.4724121,49.3493835 L16.2552449,51.5564435 Z M18.8776217,52.6709996 L20.6316923,47.8332932 C20.7309273,48.6639269 20.9101016,50.227797 20.9101016,50.227797 L18.8776217,52.6709996 Z M18.6993663,49.1959368 L18.7214185,46.8400243 L20.2926394,47.4960779 L18.6993663,49.1959368 Z M21.1379746,49.9861414 L20.8705914,47.7046552 L22.5199139,48.1732649 L21.1379746,49.9861414 Z M21.742573,53.4759057 L22.9140974,48.4562685 L23.4093536,50.8011548 L21.742573,53.4759057 Z M23.5986351,50.5420412 L23.120837,48.3037406 L24.8014001,48.5867441 L23.5986351,50.5420412 Z M24.6378462,53.9371647 L25.2507142,48.8495331 L25.9481157,51.2082021 L24.6378462,53.9371647 Z M26.1649626,50.9922741 L25.4234566,48.6740342 L27.1821214,48.7723503 L26.1649626,50.9922741 Z M27.6075455,54.0887737 L27.6295977,48.9809276 L28.6201101,51.3193821 L27.6075455,54.0887737 Z M28.7873394,51.0327032 C28.7873394,51.0327032 28.1643641,49.5055867 27.7821256,48.7723503 C28.3609965,48.7401908 29.5178193,48.6740342 29.5178193,48.6740342 L28.7873394,51.0327032 Z M30.5120071,53.9151125 L29.9652957,48.8495331 L31.1882752,50.9775726 L30.5120071,53.9151125 Z M31.3527481,50.7386735 L30.1178236,48.6207413 L31.8213578,48.3257928 L31.3527481,50.7386735 Z M33.3934975,53.4354766 L32.2918052,48.4342162 L33.76471,50.4547512 L33.3934975,53.4354766 Z M33.8961044,50.192881 L32.4222809,48.1943983 L34.0706845,47.7248697 L33.8961044,50.192881 Z M36.1987241,52.6057618 L34.5723726,47.7809191 L36.274988,49.6415754 L36.1987241,52.6057618 Z M34.6826337,47.5392635 L36.2538546,46.8850476 L36.2896895,49.2731195 L34.6826337,47.5392635 Z M27.5220932,47.4464604 C16.5713267,47.4464604 7.6934693,38.5695218 7.6934693,27.6178366 C7.6934693,16.6670701 16.5713267,7.7892127 27.5220932,7.7892127 C38.4737784,7.7892127 47.3516359,16.6670701 47.3516359,27.6178366 C47.3516359,38.5695218 38.4737784,47.4464604 27.5220932,47.4464604 Z M48.9669612,36.9900313 L46.591753,36.8687441 L47.2790473,35.3122247 L48.9669612,36.9900313 Z M47.8055441,39.2696799 L45.4459562,38.948085 C45.8088991,38.3489996 46.2866972,37.4522092 46.2866972,37.4522092 L47.8055441,39.2696799 Z M46.4153352,41.4399862 L44.0585039,40.8363066 L45.073825,39.449773 L46.4153352,41.4399862 Z M44.7908215,43.5119763 L42.5414947,42.5940525 L43.6670769,41.306754 L44.7908215,43.5119763 Z M42.0407255,43.0084505 L42.9356782,45.311989 L40.7846676,44.1321951 L42.0407255,43.0084505 Z M40.2609273,44.5043263 L40.8820649,46.8850476 L38.8734749,45.4975952 L40.2609273,44.5043263 Z M38.6557092,48.2265578 L36.8216994,46.6231774 L38.318494,45.8155147 L38.6557092,48.2265578 Z M38.9368751,51.6198436 L36.7454354,46.8850476 L38.6648977,48.5904195 L38.9368751,51.6198436 Z M41.4618546,50.1156982 L38.8192632,45.7603842 L40.8076387,47.1459989 L41.4618546,50.1156982 Z M43.8747354,48.4562685 L40.7525081,44.3949841 L42.9356782,45.6069375 L43.8747354,48.4562685 Z M46.0873084,46.5294555 L42.5414947,42.8568415 L44.8128737,43.7949798 L46.0873084,46.5294555 Z M48.0802781,44.3738507 L44.1154721,41.0981767 L46.5375413,41.7266651 L48.0802781,44.3738507 Z M49.7691108,42.0161005 L45.5010868,39.2099551 L47.9433705,39.543495 L49.7691108,42.0161005 Z M51.209856,39.4709064 L46.679043,37.1462346 L49.0753846,37.249145 L51.209856,39.4709064 Z M52.38965,36.7970744 L47.6190191,34.995224 L50.0438447,34.7939975 L52.38965,36.7970744 Z M53.3057361,34.043303 L48.2916119,32.73579 L50.7816754,32.3425253 L53.3057361,34.043303 Z M48.7418447,30.4111181 L51.1354298,29.7449572 L53.8074241,31.141598 L48.7418447,30.4111181 Z" mask="url(#gia-logo-d)"/>
    </g>
    <polygon fill="#A8996E" points="21.65 11.02 22.254 12.808 22.678 12.666 22.072 10.877 22.638 10.686 22.511 10.309 20.957 10.834 21.085 11.211"/>
    <g fill="#A8996E" transform="translate(10.107 13.826)">
      <path d="M.721383345 8.09243077C.771000847 8.14572364.82796909 8.19166577.892288073 8.23117601.958444742 8.2697674 1.02919562 8.3065211 1.10821609 8.34051828 1.1881554 8.37267777 1.27268892 8.40759379 1.36457318 8.44434749 1.4555386 8.48018236 1.54099097 8.51234185 1.62276796 8.54266366 1.70270727 8.57114778 1.77989005 8.59411884 1.8543163 8.60973917 1.92874255 8.62535949 2.00224996 8.63087255 2.07483853 8.62535949 2.14650826 8.62076528 2.22001567 8.60146958 2.29444192 8.56931009 2.40010882 8.52336796 2.49107424 8.46088666 2.56825702 8.38278504 2.6454398 8.30376457 2.70700226 8.20544841 2.75294439 8.0887554 2.79796768 7.97481891 2.82277643 7.86088243 2.8264518 7.74694594 2.83012717 7.63209061 2.80439958 7.51447876 2.74835018 7.39319153 2.70057036 7.28844347 2.63165716 7.20207227 2.54252943 7.13132138 2.45432054 7.06148934 2.33395215 6.99533267 2.18050543 6.9356079L1.86993663 6.81248299 1.55293592 7.61555145 1.89933959 7.752459 2.05370515 7.36103204 2.1345633 7.39319153C2.1906127 7.41524375 2.23931136 7.44189019 2.27974044 7.47588737 2.32016951 7.5089657 2.35416669 7.55123246 2.38081313 7.59993112 2.40562188 7.64862978 2.41756683 7.70192265 2.41848567 7.75980974 2.42032336 7.81769682 2.40837841 7.87925928 2.38356965 7.94265942 2.36059859 8.00054651 2.33027678 8.04740748 2.29260423 8.08416119 2.25585053 8.12091489 2.21358377 8.14848017 2.16764164 8.16410049 2.13823867 8.17604545 2.10699802 8.18247735 2.07575737 8.18431503 2.04359788 8.18707156 2.00408765 8.18339619 1.95722668 8.17420776 1.9103657 8.16501934 1.85247862 8.14848017 1.78356542 8.12459026 1.71373338 8.1016192 1.6301187 8.0694597 1.52812717 8.02903063 1.42705448 7.9895204 1.3434398 7.95460438 1.27728313 7.92520141 1.21204531 7.89671729 1.15967128 7.86915201 1.11832336 7.84434326 1.07697544 7.81861567 1.04665363 7.79380692 1.02460141 7.76991701 1.00254919 7.74694594.985091179 7.72121835.970389697 7.69273423.949256316 7.64954862.935473677 7.60176881.932717149 7.54847594.929041778 7.49518306.939149047 7.44005251.962120113 7.38216542 1.00438687 7.27466083 1.06411164 7.20023458 1.14221327 7.1598055 1.21847721 7.11937643 1.31219915 7.10743147 1.42246027 7.1230518L1.58877078 6.70497841C1.49321115 6.68384502 1.39765152 6.67649428 1.3002542 6.68292618 1.20285688 6.68935808 1.11097262 6.71324799 1.02276373 6.75459591.932717149 6.79502498.851858998 6.8556686.777432745 6.93377022.70208765 7.01279068.640525194 7.11294453.591826535 7.23698829.544965561 7.35551898.521994495 7.47037431.525669866 7.57971658.528426394 7.68814001.553235145 7.7956446.598258433 7.9013115.631336768 7.97573776.672684686 8.04005674.721383345 8.09243077M12.607991 3.33806337C12.7219275 3.57053056 12.8790495 3.76348751 13.0775195 3.91234001 13.2759896 4.06027368 13.5057002 4.17145363 13.7602196 4.24128567 14.014739 4.31203656 14.2922295 4.34787142 14.5816649 4.34787142 14.7838103 4.34787142 14.9868745 4.33133225 15.1862634 4.29733507 15.3865711 4.2633379 15.5583946 4.21004502 15.6998964 4.1383753 15.7338936 4.1190796 15.7541081 4.09794622 15.7632965 4.07497516 15.7706473 4.05476062 15.7743227 4.01800692 15.7743227 3.94633719L15.7743227 3.44373028C15.7743227 3.16991517 15.7761603 2.92274651 15.7789169 2.83086224L15.7807546 2.50834848C15.7807546 2.47986436 15.7614589 2.44862371 15.7173544 2.44862371L15.7164356 2.44862371C15.5933107 2.45413677 15.5133713 2.4568933 15.4784553 2.4568933 15.4481335 2.4568933 15.3663565 2.45505561 15.2322055 2.45229908 15.036492 2.44586718 14.8986656 2.44311066 14.8159698 2.44311066 14.7103029 2.44311066 14.6891695 2.48353973 14.6891695 2.51937459 14.6891695 2.53958913 14.6983579 2.58645011 14.7874857 2.58645011 14.8665061 2.58645011 14.9243932 2.59012548 14.9602281 2.5993139 15.0245471 2.6121777 15.0695704 2.63606761 15.0916226 2.66914594 15.1164313 2.70406196 15.1292951 2.75919252 15.1320517 2.83086224 15.135727 2.92274651 15.1375647 3.1662398 15.1375647 3.43454185L15.1375647 3.8645602C15.1375647 3.93806761 15.1145936 3.98400974 15.0677327 4.00514312 15.0236282 4.02535766 14.9703354 4.03822145 14.9106106 4.04465335 14.8490481 4.05108525 14.7755407 4.05384178 14.691926 4.05384178 14.4594589 4.05384178 14.2444497 4.01157502 14.0524116 3.92796034 13.8603735 3.8452645 13.6940629 3.72581496 13.5571554 3.57420593 13.4211667 3.42259689 13.3136621 3.2415849 13.2410735 3.03576415 13.168485 2.82810572 13.1298936 2.60207043 13.1298936 2.36409019 13.1298936 2.09762583 13.1666473 1.87250939 13.2373982 1.6960916 13.3090679 1.52059266 13.4101406 1.37633437 13.5396974 1.26607325 13.6793615 1.15121793 13.8217821 1.07587283 13.9632838 1.04187565 14.3023368.960098659 14.7369493.974800141 15.0392486 1.10068158 15.2156663 1.17327015 15.346142 1.25229061 15.4242436 1.33774298 15.4729423 1.38919817 15.5078583 1.44432872 15.527154 1.50221581 15.5473685 1.56102174 15.56207 1.62717841 15.5721773 1.70160466 15.5832034 1.7714367 15.6199571 1.78613818 15.6484412 1.78613818 15.6851949 1.78613818 15.7283805 1.7650048 15.7283805 1.6593379 15.7283805 1.46638095 15.7311371 1.31752844 15.7375689 1.21553691 15.7440008 1.11354538 15.7495139 1.02901186 15.7559458.962855187 15.7587023.937127594 15.76054.918750741 15.76054.909562315 15.76054.885672406 15.7522704.829623006 15.6686558.824109951 15.6227136.821353423 15.5675831.814921524 15.5014264.805733098 15.4352697.797463514 15.3718696.786437403 15.3121448.774492449 15.2873361.76806055 15.2459881.760709809 15.1899387.753359068 15.1348082.746008327 15.0640573.736819901 14.9786049.727631475 14.8922337.719361891 14.8095379.71201115 14.7305174.707416937 14.4107602.688121242 14.1121363.707416937 13.8484285.760709809 13.6517962.800220042 13.4496508.881997036 13.2493431 1.00236542 13.0159571 1.1420295 12.8202436 1.34601256 12.6686346 1.60696387 12.5161067 1.86975286 12.4380051 2.17848398 12.4380051 2.52396881 12.4380051 2.83269993 12.4949733 3.10651503 12.607991 3.33806337M18.070786 4.13396486L17.9568495 4.12293874C17.9008001 4.11466916 17.8640464 4.09721115 17.8447507 4.06964587 17.8226985 4.03840522 17.807997 3.99154425 17.7997275 3.92538758 17.7914579 3.83809753 17.7859448 3.72048567 17.7841071 3.5743897 17.7822694 3.42645603 17.7813506 3.21052802 17.7813506 2.92752449L17.7813506 1.41694721C17.7813506 1.31771221 17.785026 1.23042216 17.7914579 1.15415822 17.7969709 1.07789428 17.8098347 1.0200072 17.8300493.985091179 17.8484261.952931687 17.8833421.931798306 17.9347973.921691037 17.9871713.912502611 18.0312758.907908398 18.0671107.907908398 18.1608326.907908398 18.170021.854615526 18.170021.83164446 18.170021.764568948 18.0744614.764568948 18.0432207.764568948 17.9798206.764568948 17.8677218.767325476 17.7096809.773757375 17.5966632.776513903 17.522237.778351588 17.4854833.778351588 17.44046.778351588 17.3531699.776513903 17.2263697.773757375 17.060978.767325476 16.949798.764568948 16.8909921.764568948 16.8533195.764568948 16.7504092.764568948 16.7504092.83164446 16.7504092.854615526 16.7614353.907908398 16.8551572.907908398 16.9158008.907908398 16.9681749.914340296 17.0122793.925366408 17.0931375.94374326 17.1363231 1.01816951 17.1436738 1.15415822 17.1501057 1.23042216 17.1537811 1.31771221 17.1537811 1.41694721L17.1537811 2.92752449C17.1537811 3.20777149 17.1519434 3.42094298 17.1491869 3.56887664 17.1455115 3.71589146 17.1399984 3.83350332 17.1298912 3.92079337 17.1161085 4.04299944 17.0802737 4.11099379 17.0223866 4.12293874 16.9681749 4.1348837 16.914882 4.1413156 16.8643457 4.1413156 16.7742991 4.1413156 16.7595976 4.18266351 16.7595976 4.20839111 16.7595976 4.24238829 16.7816498 4.2837362 16.8818037 4.2837362 16.9461227 4.2837362 17.066491 4.28097968 17.2447465 4.27454778 17.3623584 4.27179125 17.4349469 4.26995356 17.4588368 4.26995356 17.5011036 4.26995356 17.5709356 4.27179125 17.668333 4.27454778 17.8750725 4.28097968 18.0432207 4.2837362 18.1718587 4.2837362 18.269256 4.2837362 18.2885517 4.24238829 18.2885517 4.20839111 18.2885517 4.18266351 18.2766068 4.1413156 18.1856414 4.1413156 18.1498065 4.1413156 18.1121339 4.13855907 18.070786 4.13396486M18.7477893 4.27978518C18.8286474 4.27978518 18.9095056 4.27794749 18.9949579 4.27519097 19.0776538 4.27243444 19.1428916 4.27059675 19.198941 4.27059675 19.2494773 4.26784023 19.2797992 4.26600254 19.2880687 4.26600254 19.3284978 4.26600254 19.4065994 4.26967791 19.5251301 4.27519097 19.6326347 4.27794749 19.7153306 4.27978518 19.7732176 4.27978518 19.8678584 4.27978518 19.8816411 4.23200536 19.8816411 4.20352124 19.8816411 4.17871249 19.8687773 4.13644573 19.7814872 4.13644573L19.7144117 4.13644573C19.6556058 4.13644573 19.6142579 4.1272573 19.5922056 4.10796161 19.5719911 4.08958476 19.5618838 4.06201948 19.5618838 4.02526577 19.5618838 3.95635258 19.5839361 3.866306 19.6280405 3.75696373L19.888073 3.08620861 20.9254463 3.09815356 21.289308 4.06661369C21.289308 4.06661369 21.312279 4.13736457 21.3306559 4.1897386 21.3471951 4.23568073 21.3664908 4.27978518 21.4207025 4.27978518 21.4675634 4.27978518 21.5208563 4.27702865 21.5778246 4.27519097 21.6421435 4.27335328 21.7110567 4.27059675 21.7781323 4.27059675L22.2155013 4.27978518C22.3037102 4.27978518 22.3615973 4.27702865 22.3919191 4.27059675 22.4516439 4.25773296 22.457157 4.22006041 22.457157 4.20352124 22.457157 4.18790092 22.4516439 4.13644573 22.3680292 4.13644573 22.3027914 4.13644573 22.2393912 4.13001383 22.1815042 4.11898772 22.1245359 4.10612392 22.0648112 4.06753253 22.0050864 4.00413239 21.9444428 3.94073225 21.8755296 3.81760734 21.8011033 3.63843303L20.8032402 1.15939562C20.7334082.982058998 20.6874661.869960198 20.6654138.824936909 20.6167152.711000423 20.5726107.659545236 20.5229932.659545236 20.5018598.659545236 20.4687815.668733663 20.4402974.711000423 20.419164.73764686 20.3980306.782670148 20.36679.861690614L19.2191555 3.7349115C19.1677004 3.86354947 19.1153263 3.96002795 19.0629523 4.02250924 19.0142536 4.08131517 18.9444216 4.11715004 18.8552939 4.1272573 18.807514 4.1336892 18.7606531 4.13644573 18.7165486 4.13644573 18.6375282 4.13644573 18.6310963 4.18790092 18.6310963 4.20352124 18.6310963 4.23200536 18.6467166 4.27978518 18.7477893 4.27978518zM20.4072191 1.68864898L20.8206982 2.79677318 19.9900645 2.80596161 20.4072191 1.68864898z"/>
    </g>
    <polygon fill="#A8996E" points="25.708 11.993 25.642 11.6 24.597 11.773 24.506 11.226 25.397 11.078 25.331 10.685 24.441 10.833 24.354 10.304 25.399 10.13 25.334 9.738 23.849 9.984 24.222 12.239"/>
    <g fill="#A8996E" transform="translate(9.188 9.232)">
      <path d="M2.88792237 15.2570143C2.91181228 15.1394024 2.91640649 15.0263848 2.90262385 14.9170425 2.88792237 14.8086191 2.85208751 14.7112217 2.79328158 14.622094 2.74274524 14.5467489 2.68577699 14.4861053 2.62053917 14.4401632 2.55530134 14.394221 2.4854693 14.3574673 2.41012421 14.3289832 2.33569795 14.3004991 2.25759633 14.2784469 2.17490049 14.2619077L1.92313761 14.2104525 1.67780663 14.160835C1.59602964 14.1442958 1.51700917 14.1341886 1.43798871 14.1323509 1.35988709 14.1295944 1.28362315 14.1369451 1.20827805 14.1544031 1.13201411 14.1718611 1.05666902 14.2058583.981323924 14.2554758.893115032 14.3142817.821445307 14.3914645.766314749 14.4861053.710265349 14.5807461.670755116 14.6873318.647784051 14.8040248L.484230064 15.6135252 2.72528723 16.0655958 2.88792237 15.2570143zM2.48914467 15.2193417L2.42206916 15.5501251.962947071 15.2551766 1.03002258 14.9243932C1.04472406 14.8490481 1.06861397 14.7874857 1.10261115 14.738787 1.13660833 14.6910072 1.18071277 14.6533347 1.23400565 14.6248505 1.26340861 14.6092302 1.2955681 14.5982041 1.32864644 14.5917722 1.36356246 14.5853403 1.40399153 14.5835026 1.45085251 14.587178 1.49863232 14.5899345 1.55376288 14.5963664 1.61532534 14.6073925 1.67872548 14.6174998 1.75131404 14.6312824 1.83492872 14.6487404 2.00583345 14.6818188 2.13355258 14.7139783 2.22176147 14.7443001 2.30997036 14.773703 2.37428934 14.8132133 2.41747495 14.8637496 2.45514749 14.9106106 2.48087509 14.9629846 2.49373888 15.0199529 2.50568384 15.0778399 2.504765 15.1439966 2.48914467 15.2193417zM17.4893424 1.8216055C17.4930178 1.90797671 17.5003685 1.98699718 17.51507 2.06234227 17.5279338 2.13768737 17.5518237 2.20660056 17.5830644 2.27183839 17.614305 2.33707622 17.6602471 2.39771983 17.7181342 2.45376923 17.8008301 2.53462738 17.8927143 2.59618984 17.9947059 2.63661891 18.0966974 2.67888567 18.2115527 2.69910021 18.338353 2.69726253 18.4596402 2.69542484 18.5744956 2.67429146 18.6820001 2.63478123 18.7895047 2.595271 18.8878209 2.5263578 18.9787863 2.42896048 19.0568879 2.3453458 19.1120185 2.24886733 19.1432591 2.1404439 19.1763375 2.03202047 19.191039 1.89511291 19.1892013 1.73064008L19.1846071 1.39618137 18.3218138 1.40720748 18.326408 1.77933874 18.7463191 1.77382569 18.7481568 1.86111574C18.7481568 1.92084051 18.7417249 1.97597107 18.7251857 2.02650741 18.7104843 2.07704375 18.6847567 2.12390473 18.6489218 2.16709033 18.6130869 2.20843825 18.5689825 2.24059774 18.5147708 2.26356881 18.4623968 2.28653987 18.4008343 2.29848483 18.3319211 2.29940367 18.2703586 2.30032251 18.2152281 2.29021524 18.1665294 2.26908186 18.1187496 2.24886733 18.0783205 2.2203832 18.046161 2.1836295 18.02319 2.16157728 18.005732 2.13493084 17.9919493 2.10644672 17.9772478 2.0779626 17.9653029 2.03937121 17.9561145 1.99251023 17.946926 1.94564926 17.9404941 1.88592449 17.9368188 1.81333592 17.9331434 1.74074735 17.929468 1.64978193 17.9276303 1.54043966 17.9267115 1.43201623 17.9276303 1.34105081 17.929468 1.26938109 17.9322246 1.19771136 17.9377376 1.13798659 17.9450884 1.09112562 17.9533579 1.04426464 17.9634652 1.00567325 17.9772478.976270289 17.9919493.947786168 18.0084885.922058574 18.0296219.897249824 18.0608625.860496119 18.1012916.830174312 18.1490714.808122089 18.1968512.785151023 18.2519818.773206069 18.3144631.772287227 18.4293184.770449541 18.5202838.79801482 18.5882782.85406422 18.6544349.909194778 18.7012958.991890614 18.7288611 1.10031404L19.1781752 1.09480099C19.161636.999241355 19.132233.907357092 19.0890474.820985886 19.0467807.732776994 18.9898124.656513056 18.9181427.589437544 18.846473.523280875 18.7610206.469988003 18.6599479.43047777 18.5579564.390967537 18.4412634.372590685 18.3080312.373509527 18.1803121.376266055 18.0663756.398318278 17.9662217.442422724 17.8660679.48652717 17.7769402.549008469 17.696082.632623147 17.6391138.690510233 17.5959282.752072689 17.5646875.818229358 17.5343657.883467184 17.5141512.954218066 17.5022062 1.02864432 17.4902613 1.10398941 17.4829105 1.18392872 17.4819917 1.26938109 17.4810728 1.35575229 17.4810728 1.44763656 17.4829105 1.54595272 17.4838294 1.64426888 17.485667 1.73615314 17.4893424 1.8216055"/>
    </g>
    <polygon fill="#A8996E" points="42.682 32.044 43.069 32.133 43.304 31.124 45.141 31.55 45.243 31.116 43.017 30.599"/>
    <polygon fill="#A8996E" points="11.781 28.869 11.387 28.919 11.516 29.947 9.645 30.185 9.701 30.627 11.969 30.34"/>
    <path fill="#A8996E" d="M13.4563584,36.5930824 C13.5298658,36.548978 13.5960224,36.5030359 13.6539095,36.455256 C13.7127155,36.4065574 13.762333,36.3532645 13.8045997,36.2935397 C13.8459476,36.2347338 13.8771883,36.1649018 13.8983217,36.0868001 C13.9295623,35.9756202 13.9387507,35.8662779 13.9258869,35.7578545 C13.913942,35.6485122 13.8753506,35.5382511 13.8110316,35.4243146 C13.7467126,35.3103781 13.6713675,35.2212504 13.5849963,35.1560126 C13.4986251,35.0907747 13.400309,35.0429949 13.2900478,35.0117543 C13.2110274,34.989702 13.1356823,34.9823513 13.0640126,34.9869455 C12.9923428,34.9915397 12.9206731,35.0071601 12.8480845,35.0319688 C12.775496,35.0576964 12.7019886,35.0898559 12.6266435,35.130285 C12.5512984,35.170714 12.4713591,35.2148185 12.3849879,35.264436 C12.2995355,35.3122158 12.220515,35.3590768 12.1479265,35.4031812 C12.0744191,35.4472857 12.0073435,35.4932278 11.9503753,35.5428453 C11.8924882,35.591544 11.8419519,35.6457557 11.800604,35.7054805 C11.759256,35.7642864 11.7280154,35.8331996 11.7059632,35.91222 C11.6756414,36.0224812 11.6664529,36.1318234 11.6783979,36.2402469 C11.6903428,36.3477514 11.7280154,36.4580126 11.7923344,36.571949 C11.8566534,36.6849667 11.9319984,36.7750133 12.0192885,36.8411699 C12.1056597,36.9073266 12.2048947,36.9569441 12.3151558,36.9863471 C12.3941763,37.0083993 12.4695214,37.0166689 12.5411911,37.0111558 C12.6137797,37.0056428 12.6854494,36.9909413 12.7571191,36.9652137 C12.82787,36.9394861 12.9013774,36.9064078 12.9767225,36.8650598 C13.0520676,36.8255496 13.1329258,36.7805263 13.2183781,36.7318277 C13.3038305,36.6840478 13.382851,36.6371869 13.4563584,36.5930824 M12.7607945,36.4736329 C12.6964755,36.5067112 12.641345,36.5306011 12.5972405,36.5462215 C12.5512984,36.5627606 12.512707,36.5710302 12.4805475,36.5728679 C12.4493068,36.5756244 12.4180662,36.5728679 12.3868255,36.566436 C12.3390457,36.5563287 12.2940224,36.5351953 12.249918,36.5039547 C12.2058135,36.4717952 12.1690598,36.4295284 12.1378192,36.3753167 C12.1074974,36.321105 12.0900394,36.2678121 12.086364,36.2145193 C12.0817698,36.1612264 12.0882017,36.1125277 12.103822,36.0665856 C12.1130104,36.0362638 12.1267931,36.0068608 12.1451699,35.9802144 C12.1626279,35.9526491 12.1901932,35.924165 12.2260281,35.8929243 C12.2627818,35.8626025 12.3114805,35.8276865 12.3730429,35.7890951 C12.4327677,35.7514226 12.5108693,35.7054805 12.6055101,35.6512687 C12.7001509,35.5979759 12.7800902,35.5547903 12.8434903,35.5217119 C12.9068905,35.4895524 12.962021,35.4647437 13.0070443,35.4491234 C13.0520676,35.433503 13.090659,35.4252335 13.1228185,35.4243146 C13.1558968,35.4224769 13.1880563,35.4252335 13.219297,35.4325842 C13.2661579,35.4426915 13.3121001,35.462906 13.3552857,35.4941466 C13.3975524,35.5244685 13.435225,35.5667352 13.4655468,35.6209469 C13.4958686,35.6742398 13.5133266,35.7284515 13.5188397,35.7826632 C13.5234339,35.8368749 13.5179208,35.8864924 13.5013817,35.9324346 C13.4912744,35.9618375 13.4774917,35.9903217 13.4591149,36.0169681 C13.4416569,36.0436145 13.4140916,36.0720987 13.3773379,36.1024205 C13.3405842,36.1336611 13.2918855,36.1676583 13.2312419,36.2062497 C13.1705983,36.2448411 13.0924967,36.2898644 12.9987747,36.3440761 C12.9041339,36.3973689 12.8232758,36.4414734 12.7607945,36.4736329"/>
    <polygon fill="#A8996E" points="12.684 33.024 11.235 33.06 12.42 32.225 12.303 31.871 9.939 32.005 10.086 32.448 11.566 32.334 10.328 33.183 10.433 33.5 11.933 33.444 10.674 34.232 10.82 34.674 12.8 33.378"/>
    <polygon fill="#A8996E" points="41.82 34.34 42.189 34.49 42.588 33.508 43.101 33.718 42.762 34.553 43.131 34.703 43.471 33.868 43.967 34.07 43.568 35.05 43.936 35.201 44.503 33.806 42.386 32.946"/>
    <polygon fill="#A8996E" points="41.139 35.61 42.33 36.35 40.66 36.378 40.45 36.716 42.391 37.922 42.625 37.544 41.438 36.805 43.105 36.775 43.316 36.438 41.374 35.23"/>
    <polygon fill="#A8996E" points="15.659 38.063 14.58 38.96 15.08 37.366 14.825 37.06 13.068 38.521 13.353 38.865 14.429 37.97 13.932 39.561 14.186 39.867 15.944 38.406"/>
    <path fill="#A8996E" d="M29.6375445,44.611822 C29.5732255,44.5346392 29.4987993,44.477671 29.4133469,44.4418361 C29.4850167,44.395894 29.5419849,44.3324939 29.5851705,44.2553111 C29.6292749,44.1772095 29.646733,44.0761368 29.6357068,43.9530119 C29.6274373,43.8565334 29.6026285,43.7701622 29.5612806,43.6929794 C29.5208515,43.6157966 29.4666398,43.5514776 29.3995643,43.4991036 C29.3334076,43.4467296 29.2562248,43.4081382 29.1680159,43.3842483 C29.0798071,43.3594395 28.9860851,43.3511699 28.8859313,43.3603584 C28.7903716,43.3686279 28.7012439,43.3906802 28.6194669,43.4283527 C28.5376899,43.4651064 28.4687767,43.5138051 28.4118085,43.5753675 C28.3548402,43.6350923 28.3116546,43.7076809 28.280414,43.7903767 C28.2500922,43.8739914 28.2381472,43.9667945 28.2445791,44.0697049 L28.659896,44.03387 C28.6571394,43.9456611 28.6791917,43.8758291 28.7278903,43.823455 C28.7756701,43.771081 28.8390703,43.7407592 28.9180908,43.7343273 C28.992517,43.7278954 29.0595925,43.7462723 29.1193173,43.7912956 C29.1790421,43.8354 29.2130392,43.9061509 29.2213088,44.0007917 C29.2277407,44.0825687 29.2112016,44.1524007 29.1716913,44.2102878 C29.1312622,44.2690937 29.0605114,44.3021721 28.957601,44.3104416 L28.8969574,44.3168735 L28.928198,44.6779787 L28.9888416,44.6715468 C29.091752,44.664196 29.1726102,44.6853294 29.2332538,44.7367846 C29.2920597,44.7882398 29.3269757,44.8626661 29.3352453,44.9591445 C29.3444337,45.0611361 29.3223815,45.1419942 29.2690886,45.201719 C29.2157958,45.2605249 29.1450449,45.2936032 29.0559171,45.3018728 C29.0154881,45.3055482 28.9759778,45.3027917 28.9383053,45.2945221 C28.8997139,45.2853337 28.8647979,45.2706322 28.8363138,45.24858 C28.805992,45.2265277 28.7802644,45.1971248 28.7600498,45.1612899 C28.7398353,45.125455 28.7269715,45.0822694 28.7205396,45.0317331 L28.3043039,45.067568 C28.3171677,45.1860987 28.3465706,45.2862525 28.3952693,45.3661918 C28.4430491,45.44705 28.5027739,45.5122878 28.5744436,45.5609865 C28.6461133,45.6096851 28.7260526,45.6427634 28.8142615,45.6611403 C28.9033893,45.6785983 28.9943547,45.6841114 29.0880766,45.6758418 C29.185474,45.6675722 29.2773582,45.64552 29.3628106,45.610604 C29.4473441,45.5756879 29.5208515,45.5269893 29.5814951,45.464508 C29.6430576,45.4020267 29.6889997,45.3266816 29.7202404,45.2384727 C29.751481,45.149345 29.7615883,45.0482723 29.7523999,44.9361735 C29.7404549,44.7974282 29.7018635,44.6890048 29.6375445,44.611822"/>
    <polygon fill="#A8996E" points="31.307 42.984 30.953 43.489 31.061 43.926 31.415 43.42 31.859 45.203 32.263 45.103 31.713 42.884"/>
    <polygon fill="#A8996E" points="17.25 40.527 16.797 40.609 17.012 39.434 16.613 39.101 16.354 40.678 15.191 40.891 15.607 41.238 16.863 40.99 16.227 41.754 16.568 42.04 18.033 40.285 17.69 39.999"/>
    <path fill="#A8996E" d="M26.7840788,43.5970522 C26.724354,43.5327332 26.6526843,43.4821969 26.5690696,43.4445243 C26.4845361,43.4068518 26.3926518,43.3847996 26.2934168,43.37653 C26.1932629,43.3700981 26.0986222,43.3792865 26.0094944,43.4050141 C25.9212855,43.4298229 25.8422651,43.4711708 25.7742707,43.5263013 C25.7062764,43.5832696 25.650227,43.6540205 25.6079602,43.7394728 C25.5647746,43.8249252 25.539047,43.9241602 25.5307774,44.0353402 C25.5234267,44.1410071 25.5326151,44.2384044 25.5610992,44.3238567 C25.5886645,44.4093091 25.6281747,44.4828165 25.6796299,44.544379 C25.7310851,44.6068603 25.7908099,44.6555589 25.8615608,44.6923126 C25.9313928,44.7281475 26.0049002,44.7492809 26.0811641,44.7547939 C26.1096483,44.7566316 26.1381324,44.7566316 26.1666165,44.7547939 C26.1960195,44.7529562 26.2245036,44.7474432 26.2529877,44.7382548 L25.7108706,45.6442336 L26.1611035,45.6773119 L26.7160844,44.7281475 C26.7748903,44.6270748 26.8272644,44.5296775 26.8713688,44.4341179 C26.9154733,44.3385582 26.9421197,44.2384044 26.9494704,44.1336563 C26.95774,44.0215575 26.9476327,43.9186471 26.9173109,43.8295194 C26.8888268,43.7394728 26.8438035,43.66229 26.7840788,43.5970522 M26.5341536,44.1070099 C26.5268028,44.2126768 26.4928056,44.2935349 26.432162,44.3468278 C26.3733561,44.4001207 26.3007675,44.4240106 26.2153152,44.4175787 C26.1261874,44.4102279 26.0572742,44.3753119 26.0085756,44.3128306 C25.9589581,44.2485116 25.9387435,44.164897 25.9470131,44.0619866 C25.9543639,43.9563197 25.988361,43.8763804 26.0480858,43.8230875 C26.1068917,43.7688758 26.1794803,43.7459047 26.2649327,43.7523366 C26.350385,43.7578497 26.4183794,43.7918469 26.4698346,43.8543282 C26.5203709,43.9158906 26.5424231,43.9995053 26.5341536,44.1070099"/>
    <polygon fill="#A8996E" points="23.26 43.305 23.159 43.744 23.704 43.453 23.293 45.243 23.699 45.338 24.211 43.109 23.804 43.015"/>
    <polygon fill="#A8996E" points="19.483 42.888 19.827 43.932 20.872 43.59 20.529 42.544"/>
    <polygon fill="#A8996E" points="43.172 29.659 43.569 29.688 43.644 28.654 45.526 28.791 45.558 28.345 43.28 28.18"/>
    <path fill="#A8996E" d="M32.658791,32.3263448 L32.8885016,32.0516109 L32.7157592,31.9073526 L33.172424,31.3652354 L32.6946258,30.96462 L32.2388799,31.5067372 L32.0670563,31.3615601 L31.8649109,31.601378 C31.8685863,31.6032157 31.8695052,31.6050534 31.8731805,31.6078099 C32.1166738,31.7869842 32.4217296,32.0121006 32.658791,32.3263448"/>
    <polygon fill="#A8996E" points="43.287 27.178 43.684 27.145 43.598 26.09 44.152 26.044 44.225 26.943 44.622 26.911 44.549 26.012 45.083 25.967 45.169 27.024 45.566 26.992 45.443 25.491 43.165 25.676"/>
    <g fill="#A8996E" transform="translate(20.215 31.284)">
      <path d="M2.33294143 4.4098933L1.17795625 2.01814594.285760056 2.01814594.285760056 2.12748821C.285760056 2.12748821 1.57489626 3.56547692 2.33294143 4.4098933M10.8106429 2.53765956L11.2902788 1.96797713 11.510801 2.15358335 11.6688419 1.96522061C11.5916591 1.68313592 11.3527601 1.49201665 10.9925737 1.22738998 10.9705215 1.21085081 10.950307 1.19431164 10.9282548 1.17777248L10.6884368 1.46261369 10.9052837 1.64546337 10.4265667 2.2151458 10.8106429 2.53765956z"/>
      <path d="M10.6666603,3.82128271 L10.6675791,3.82220155 L10.6657414,3.82220155 L10.4047901,4.52327848 L11.7821352,4.52327848 L11.6645234,3.89295243 C12.12762,3.66416062 12.4859687,3.08528977 12.5576384,2.36124178 C12.5640703,2.30059817 12.5668268,2.24179224 12.5668268,2.18390515 C12.5677457,2.1590964 12.565908,2.13336881 12.565908,2.10764121 C12.5640703,2.07823825 12.5640703,2.04791644 12.5613138,2.02035116 C12.5585572,1.98727283 12.553963,1.95603218 12.5493688,1.92479153 C12.5466123,1.90549584 12.5447746,1.8852813 12.5410992,1.8659856 C12.5355862,1.83106958 12.5263977,1.79523472 12.5181282,1.76123754 C12.5144528,1.74929259 12.5135339,1.73550995 12.5089397,1.723565 C12.4979136,1.68589245 12.4850498,1.64913874 12.4731049,1.61330388 C12.4703483,1.60595314 12.4675918,1.59768356 12.4639164,1.58941397 C12.4501338,1.55082258 12.4335946,1.51315004 12.4161366,1.47823402 C12.4142989,1.4736398 12.4115424,1.46996443 12.4106236,1.46628906 C12.3922467,1.42677883 12.3720322,1.39002512 12.3508988,1.35419026 C12.3490611,1.35327142 12.3490611,1.35051489 12.3481423,1.34867721 C12.32609,1.31100466 12.303119,1.27425095 12.2783102,1.24025378 C12.0623822,0.930603811 11.7619207,0.709162738 11.5101578,0.523556528 C11.5028071,0.518043472 11.497294,0.513449259 11.4908621,0.508855046 C11.4228677,0.458318701 11.3567111,0.409620042 11.2960675,0.361840226 L10.907397,0.84974566 C10.9625276,0.893850106 11.0259277,0.939792237 11.088409,0.986653211 C11.105867,0.999517008 11.1224062,1.0123808 11.1407831,1.02616344 C11.4320562,1.24025378 11.7095466,1.44974989 11.8501296,1.74929259 C11.8501296,1.75021143 11.8528861,1.7538868 11.8528861,1.75664333 C11.8795325,1.81361157 11.9006659,1.87609287 11.9144486,1.9413307 C11.9208805,1.97165251 11.9273124,2.00289315 11.9337442,2.0341338 C11.9355819,2.05894255 11.9374196,2.08099478 11.9392573,2.10488469 C11.9438515,2.16644714 11.9447704,2.23076613 11.9383385,2.29876048 C11.8758572,2.91162851 11.5138332,3.44271955 10.9579334,3.3921832 L9.5851825,2.23903571 L9.255318,2.63230035 L10.6675791,3.82128271 L10.6666603,3.82128271 Z"/>
    </g>
    <polygon fill="#A8996E" points="20.499 32.878 20.499 32.962 22.699 32.962 21.46 32.161"/>
    <polygon fill="#A8996E" points="23.85 32.962 26.09 32.962 26.09 32.877 25.162 32.208"/>
    <polygon fill="#A8996E" points="23.075 36.062 23.075 33.303 21.742 33.303"/>
    <polygon fill="#A8996E" points="23.949 35.731 26.091 33.412 26.091 33.303 25.232 33.303"/>
    <polygon fill="#A8996E" points="23.383 33.302 23.383 36.125 24.875 33.302"/>
    <polygon fill="#A8996E" points="30.474 35.09 29.468 34.244 29.203 34.825 29.941 35.444"/>
    <polygon fill="#A8996E" points="21.896 32.047 23.25 32.921 24.772 32.047"/>
  </g>
</svg>
